solid Axis_Belt_Alignment
facet normal 0.0 0.0 -1.0
outer loop
vertex 10.150925789131 30.0 0.0
vertex 9.0 1.44731038470897e-15 0.0
vertex 9.0 30.0 0.0
endloop
endfacet
facet normal 0.0 0.0 -1.0
outer loop
vertex 9.0 1.44731038470897e-15 0.0
vertex 10.150925789131 30.0 0.0
vertex 9.40244604054808 -2.83042854119805 0.0
endloop
endfacet
facet normal 0.0 0.0 -1.0
outer loop
vertex 9.40244604054808 -2.83042854119805 0.0
vertex 10.150925789131 30.0 0.0
vertex 9.96796805481777 -1.46513762452759 0.0
endloop
endfacet
facet normal 0.0 0.0 -1.0
outer loop
vertex 9.96796805481777 -1.46513762452759 0.0
vertex 10.150925789131 30.0 0.0
vertex 10.150925789131 -0.0754356616629932 0.0
endloop
endfacet
facet normal 0.0 0.0 -1.0
outer loop
vertex -1.150925789131 30.0 0.0
vertex -0.967968054817773 -1.4651376245276 0.0
vertex -1.15092578913101 -0.0754356616629573 0.0
endloop
endfacet
facet normal 0.0 0.0 -1.0
outer loop
vertex -0.967968054817773 -1.4651376245276 0.0
vertex -1.150925789131 30.0 0.0
vertex 0.0 30.0 0.0
endloop
endfacet
facet normal 0.0 0.0 -1.0
outer loop
vertex -0.967968054817773 -1.4651376245276 0.0
vertex 0.0 30.0 0.0
vertex -0.402446040548077 -2.83042854119805 0.0
endloop
endfacet
facet normal 0.0 0.0 -1.0
outer loop
vertex -0.402446040548077 -2.83042854119805 0.0
vertex 0.0 30.0 0.0
vertex 0.0 0.0 0.0
endloop
endfacet
facet normal 0.0 0.0 -1.0
outer loop
vertex -0.402446040548077 -2.83042854119805 0.0
vertex 0.0 0.0 0.0
vertex 0.497169569709828 -4.00283043029018 0.0
endloop
endfacet
facet normal 0.0 0.0 -1.0
outer loop
vertex 0.497169569709828 -4.00283043029018 0.0
vertex 0.0 0.0 0.0
vertex 0.153333781699193 -1.16468570296134 0.0
endloop
endfacet
facet normal 0.0 0.0 -1.0
outer loop
vertex 0.497169569709828 -4.00283043029018 0.0
vertex 0.153333781699193 -1.16468570296134 0.0
vertex 0.602885682970026 -2.25 0.0
endloop
endfacet
facet normal 0.0 0.0 -1.0
outer loop
vertex 0.497169569709828 -4.00283043029018 0.0
vertex 0.602885682970026 -2.25 0.0
vertex 1.66957145880196 -4.90244604054808 0.0
endloop
endfacet
facet normal 0.0 0.0 -1.0
outer loop
vertex 1.66957145880196 -4.90244604054808 0.0
vertex 0.602885682970026 -2.25 0.0
vertex 1.31801948466054 -3.18198051533946 0.0
endloop
endfacet
facet normal 0.0 0.0 -1.0
outer loop
vertex 1.66957145880196 -4.90244604054808 0.0
vertex 1.31801948466054 -3.18198051533946 0.0
vertex 2.25 -3.89711431702997 0.0
endloop
endfacet
facet normal 0.0 0.0 -1.0
outer loop
vertex 1.66957145880196 -4.90244604054808 0.0
vertex 2.25 -3.89711431702997 0.0
vertex 3.0348623754724 -5.46796805481777 0.0
endloop
endfacet
facet normal 0.0 0.0 -1.0
outer loop
vertex 3.0348623754724 -5.46796805481777 0.0
vertex 2.25 -3.89711431702997 0.0
vertex 3.33531429703866 -4.34666621830081 0.0
endloop
endfacet
facet normal 0.0 0.0 -1.0
outer loop
vertex 3.0348623754724 -5.46796805481777 0.0
vertex 3.33531429703866 -4.34666621830081 0.0
vertex 4.49999999999999 -5.6608570823961 0.0
endloop
endfacet
facet normal 0.0 0.0 -1.0
outer loop
vertex 4.49999999999999 -5.6608570823961 0.0
vertex 3.33531429703866 -4.34666621830081 0.0
vertex 4.5 -4.5 0.0
endloop
endfacet
facet normal 0.0 0.0 -1.0
outer loop
vertex 4.49999999999999 -5.6608570823961 0.0
vertex 4.5 -4.5 0.0
vertex 5.9651376245276 -5.46796805481777 0.0
endloop
endfacet
facet normal 0.0 0.0 -1.0
outer loop
vertex 5.9651376245276 -5.46796805481777 0.0
vertex 4.5 -4.5 0.0
vertex 5.66468570296134 -4.34666621830081 0.0
endloop
endfacet
facet normal 0.0 0.0 -1.0
outer loop
vertex 5.9651376245276 -5.46796805481777 0.0
vertex 5.66468570296134 -4.34666621830081 0.0
vertex 6.75 -3.89711431702997 0.0
endloop
endfacet
facet normal 0.0 0.0 -1.0
outer loop
vertex 5.9651376245276 -5.46796805481777 0.0
vertex 6.75 -3.89711431702997 0.0
vertex 7.33042854119805 -4.90244604054808 0.0
endloop
endfacet
facet normal 0.0 0.0 -1.0
outer loop
vertex 7.33042854119805 -4.90244604054808 0.0
vertex 6.75 -3.89711431702997 0.0
vertex 7.68198051533946 -3.18198051533946 0.0
endloop
endfacet
facet normal 0.0 0.0 -1.0
outer loop
vertex 7.33042854119805 -4.90244604054808 0.0
vertex 7.68198051533946 -3.18198051533946 0.0
vertex 8.50283043029018 -4.00283043029017 0.0
endloop
endfacet
facet normal 0.0 0.0 -1.0
outer loop
vertex 8.50283043029018 -4.00283043029017 0.0
vertex 7.68198051533946 -3.18198051533946 0.0
vertex 8.39711431702997 -2.25 0.0
endloop
endfacet
facet normal 0.0 0.0 -1.0
outer loop
vertex 8.50283043029018 -4.00283043029017 0.0
vertex 8.39711431702997 -2.25 0.0
vertex 8.84666621830081 -1.16468570296134 0.0
endloop
endfacet
facet normal 0.0 0.0 -1.0
outer loop
vertex 8.50283043029018 -4.00283043029017 0.0
vertex 8.84666621830081 -1.16468570296134 0.0
vertex 9.40244604054808 -2.83042854119805 0.0
endloop
endfacet
facet normal 0.0 0.0 -1.0
outer loop
vertex 9.40244604054808 -2.83042854119805 0.0
vertex 8.84666621830081 -1.16468570296134 0.0
vertex 9.0 1.44731038470897e-15 0.0
endloop
endfacet
facet normal 0.0 0.0 1.0
outer loop
vertex 0.497169569709828 -4.00283043029018 5.0
vertex 0.0 0.0 5.0
vertex -0.402446040548077 -2.83042854119805 5.0
endloop
endfacet
facet normal 0.0 0.0 1.0
outer loop
vertex 0.0 0.0 5.0
vertex 0.497169569709828 -4.00283043029018 5.0
vertex 0.153333781699193 -1.16468570296134 5.0
endloop
endfacet
facet normal 0.0 0.0 1.0
outer loop
vertex 0.153333781699193 -1.16468570296134 5.0
vertex 0.497169569709828 -4.00283043029018 5.0
vertex 0.602885682970026 -2.25 5.0
endloop
endfacet
facet normal 0.0 0.0 1.0
outer loop
vertex 0.602885682970026 -2.25 5.0
vertex 0.497169569709828 -4.00283043029018 5.0
vertex 1.66957145880196 -4.90244604054808 5.0
endloop
endfacet
facet normal 0.0 0.0 1.0
outer loop
vertex 0.602885682970026 -2.25 5.0
vertex 1.66957145880196 -4.90244604054808 5.0
vertex 1.31801948466054 -3.18198051533946 5.0
endloop
endfacet
facet normal 0.0 0.0 1.0
outer loop
vertex 1.31801948466054 -3.18198051533946 5.0
vertex 1.66957145880196 -4.90244604054808 5.0
vertex 2.25 -3.89711431702997 5.0
endloop
endfacet
facet normal 0.0 0.0 1.0
outer loop
vertex 2.25 -3.89711431702997 5.0
vertex 1.66957145880196 -4.90244604054808 5.0
vertex 3.0348623754724 -5.46796805481777 5.0
endloop
endfacet
facet normal 0.0 0.0 1.0
outer loop
vertex 2.25 -3.89711431702997 5.0
vertex 3.0348623754724 -5.46796805481777 5.0
vertex 3.33531429703866 -4.34666621830081 5.0
endloop
endfacet
facet normal 0.0 0.0 1.0
outer loop
vertex 3.33531429703866 -4.34666621830081 5.0
vertex 3.0348623754724 -5.46796805481777 5.0
vertex 4.49999999999999 -5.6608570823961 5.0
endloop
endfacet
facet normal 0.0 0.0 1.0
outer loop
vertex 3.33531429703866 -4.34666621830081 5.0
vertex 4.49999999999999 -5.6608570823961 5.0
vertex 4.5 -4.5 5.0
endloop
endfacet
facet normal 0.0 0.0 1.0
outer loop
vertex 4.5 -4.5 5.0
vertex 4.49999999999999 -5.6608570823961 5.0
vertex 5.9651376245276 -5.46796805481777 5.0
endloop
endfacet
facet normal 0.0 0.0 1.0
outer loop
vertex 4.5 -4.5 5.0
vertex 5.9651376245276 -5.46796805481777 5.0
vertex 5.66468570296134 -4.34666621830081 5.0
endloop
endfacet
facet normal 0.0 0.0 1.0
outer loop
vertex 5.66468570296134 -4.34666621830081 5.0
vertex 5.9651376245276 -5.46796805481777 5.0
vertex 6.75 -3.89711431702997 5.0
endloop
endfacet
facet normal 0.0 0.0 1.0
outer loop
vertex 6.75 -3.89711431702997 5.0
vertex 5.9651376245276 -5.46796805481777 5.0
vertex 7.33042854119805 -4.90244604054808 5.0
endloop
endfacet
facet normal 0.0 0.0 1.0
outer loop
vertex 6.75 -3.89711431702997 5.0
vertex 7.33042854119805 -4.90244604054808 5.0
vertex 7.68198051533946 -3.18198051533946 5.0
endloop
endfacet
facet normal 0.0 0.0 1.0
outer loop
vertex 7.68198051533946 -3.18198051533946 5.0
vertex 7.33042854119805 -4.90244604054808 5.0
vertex 8.50283043029018 -4.00283043029017 5.0
endloop
endfacet
facet normal 0.0 0.0 1.0
outer loop
vertex 7.68198051533946 -3.18198051533946 5.0
vertex 8.50283043029018 -4.00283043029017 5.0
vertex 8.39711431702997 -2.25 5.0
endloop
endfacet
facet normal 0.0 0.0 1.0
outer loop
vertex 8.39711431702997 -2.25 5.0
vertex 8.50283043029018 -4.00283043029017 5.0
vertex 8.84666621830081 -1.16468570296134 5.0
endloop
endfacet
facet normal 0.0 0.0 1.0
outer loop
vertex 8.84666621830081 -1.16468570296134 5.0
vertex 8.50283043029018 -4.00283043029017 5.0
vertex 9.40244604054808 -2.83042854119805 5.0
endloop
endfacet
facet normal 0.0 0.0 1.0
outer loop
vertex 8.84666621830081 -1.16468570296134 5.0
vertex 9.40244604054808 -2.83042854119805 5.0
vertex 9.0 1.44731038470897e-15 5.0
endloop
endfacet
facet normal 0.0 0.0 1.0
outer loop
vertex 9.0 1.44731038470897e-15 5.0
vertex 9.40244604054808 -2.83042854119805 5.0
vertex 9.0 30.0 5.0
endloop
endfacet
facet normal 0.0 0.0 1.0
outer loop
vertex 9.0 30.0 5.0
vertex 9.40244604054808 -2.83042854119805 5.0
vertex 10.150925789131 30.0 5.0
endloop
endfacet
facet normal 0.0 0.0 1.0
outer loop
vertex 10.150925789131 30.0 5.0
vertex 9.40244604054808 -2.83042854119805 5.0
vertex 9.96796805481777 -1.46513762452759 5.0
endloop
endfacet
facet normal 0.0 0.0 1.0
outer loop
vertex 10.150925789131 30.0 5.0
vertex 9.96796805481777 -1.46513762452759 5.0
vertex 10.150925789131 -0.0754356616629932 5.0
endloop
endfacet
facet normal 0.0 0.0 1.0
outer loop
vertex -0.967968054817773 -1.4651376245276 5.0
vertex -1.150925789131 30.0 5.0
vertex -1.15092578913101 -0.0754356616629573 5.0
endloop
endfacet
facet normal 0.0 0.0 1.0
outer loop
vertex -1.150925789131 30.0 5.0
vertex -0.967968054817773 -1.4651376245276 5.0
vertex 0.0 30.0 5.0
endloop
endfacet
facet normal 0.0 0.0 1.0
outer loop
vertex 0.0 30.0 5.0
vertex -0.967968054817773 -1.4651376245276 5.0
vertex -0.402446040548077 -2.83042854119805 5.0
endloop
endfacet
facet normal 0.0 0.0 1.0
outer loop
vertex 0.0 30.0 5.0
vertex -0.402446040548077 -2.83042854119805 5.0
vertex 0.0 0.0 5.0
endloop
endfacet
facet normal -0.0 1.0 0.0
outer loop
vertex -1.150925789131 30.0 5.0
vertex 0.0 30.0 0.0
vertex -1.150925789131 30.0 0.0
endloop
endfacet
facet normal -0.0 1.0 0.0
outer loop
vertex 0.0 30.0 0.0
vertex -1.150925789131 30.0 5.0
vertex 0.0 30.0 5.0
endloop
endfacet
facet normal 1.0 0.0 0.0
outer loop
vertex 0.0 30.0 0.0
vertex 0.0 0.0 5.0
vertex 0.0 0.0 0.0
endloop
endfacet
facet normal 1.0 0.0 0.0
outer loop
vertex 0.0 0.0 5.0
vertex 0.0 30.0 0.0
vertex 0.0 30.0 5.0
endloop
endfacet
facet normal 0.99144486137381 0.130526192220052 0.0
outer loop
vertex 0.0 0.0 0.0
vertex 0.153333781699193 -1.16468570296134 5.0
vertex 0.153333781699193 -1.16468570296134 0.0
endloop
endfacet
facet normal 0.99144486137381 0.130526192220052 0.0
outer loop
vertex 0.153333781699193 -1.16468570296134 5.0
vertex 0.0 0.0 0.0
vertex 0.0 0.0 5.0
endloop
endfacet
facet normal 0.923879532511287 0.38268343236509 0.0
outer loop
vertex 0.153333781699193 -1.16468570296134 0.0
vertex 0.602885682970026 -2.25 5.0
vertex 0.602885682970026 -2.25 0.0
endloop
endfacet
facet normal 0.923879532511287 0.38268343236509 0.0
outer loop
vertex 0.602885682970026 -2.25 5.0
vertex 0.153333781699193 -1.16468570296134 0.0
vertex 0.153333781699193 -1.16468570296134 5.0
endloop
endfacet
facet normal 0.793353340291235 0.60876142900872 0.0
outer loop
vertex 0.602885682970026 -2.25 0.0
vertex 1.31801948466054 -3.18198051533946 5.0
vertex 1.31801948466054 -3.18198051533946 0.0
endloop
endfacet
facet normal 0.793353340291235 0.60876142900872 0.0
outer loop
vertex 1.31801948466054 -3.18198051533946 5.0
vertex 0.602885682970026 -2.25 0.0
vertex 0.602885682970026 -2.25 5.0
endloop
endfacet
facet normal 0.608761429008721 0.793353340291235 0.0
outer loop
vertex 1.31801948466054 -3.18198051533946 5.0
vertex 2.25 -3.89711431702997 0.0
vertex 1.31801948466054 -3.18198051533946 0.0
endloop
endfacet
facet normal 0.608761429008721 0.793353340291235 0.0
outer loop
vertex 2.25 -3.89711431702997 0.0
vertex 1.31801948466054 -3.18198051533946 5.0
vertex 2.25 -3.89711431702997 5.0
endloop
endfacet
facet normal 0.38268343236509 0.923879532511287 0.0
outer loop
vertex 2.25 -3.89711431702997 5.0
vertex 3.33531429703866 -4.34666621830081 0.0
vertex 2.25 -3.89711431702997 0.0
endloop
endfacet
facet normal 0.38268343236509 0.923879532511287 0.0
outer loop
vertex 3.33531429703866 -4.34666621830081 0.0
vertex 2.25 -3.89711431702997 5.0
vertex 3.33531429703866 -4.34666621830081 5.0
endloop
endfacet
facet normal 0.130526192220052 0.99144486137381 0.0
outer loop
vertex 3.33531429703866 -4.34666621830081 5.0
vertex 4.5 -4.5 0.0
vertex 3.33531429703866 -4.34666621830081 0.0
endloop
endfacet
facet normal 0.130526192220052 0.99144486137381 0.0
outer loop
vertex 4.5 -4.5 0.0
vertex 3.33531429703866 -4.34666621830081 5.0
vertex 4.5 -4.5 5.0
endloop
endfacet
facet normal -0.130526192220051 0.99144486137381 0.0
outer loop
vertex 4.5 -4.5 5.0
vertex 5.66468570296134 -4.34666621830081 0.0
vertex 4.5 -4.5 0.0
endloop
endfacet
facet normal -0.130526192220051 0.99144486137381 0.0
outer loop
vertex 5.66468570296134 -4.34666621830081 0.0
vertex 4.5 -4.5 5.0
vertex 5.66468570296134 -4.34666621830081 5.0
endloop
endfacet
facet normal -0.382683432365089 0.923879532511287 0.0
outer loop
vertex 5.66468570296134 -4.34666621830081 5.0
vertex 6.75 -3.89711431702997 0.0
vertex 5.66468570296134 -4.34666621830081 0.0
endloop
endfacet
facet normal -0.382683432365089 0.923879532511287 0.0
outer loop
vertex 6.75 -3.89711431702997 0.0
vertex 5.66468570296134 -4.34666621830081 5.0
vertex 6.75 -3.89711431702997 5.0
endloop
endfacet
facet normal -0.60876142900872 0.793353340291235 0.0
outer loop
vertex 6.75 -3.89711431702997 5.0
vertex 7.68198051533946 -3.18198051533946 0.0
vertex 6.75 -3.89711431702997 0.0
endloop
endfacet
facet normal -0.60876142900872 0.793353340291235 0.0
outer loop
vertex 7.68198051533946 -3.18198051533946 0.0
vertex 6.75 -3.89711431702997 5.0
vertex 7.68198051533946 -3.18198051533946 5.0
endloop
endfacet
facet normal -0.793353340291235 0.60876142900872 0.0
outer loop
vertex 8.39711431702997 -2.25 5.0
vertex 7.68198051533946 -3.18198051533946 0.0
vertex 7.68198051533946 -3.18198051533946 5.0
endloop
endfacet
facet normal -0.793353340291235 0.60876142900872 0.0
outer loop
vertex 7.68198051533946 -3.18198051533946 0.0
vertex 8.39711431702997 -2.25 5.0
vertex 8.39711431702997 -2.25 0.0
endloop
endfacet
facet normal -0.923879532511287 0.382683432365089 0.0
outer loop
vertex 8.84666621830081 -1.16468570296134 5.0
vertex 8.39711431702997 -2.25 0.0
vertex 8.39711431702997 -2.25 5.0
endloop
endfacet
facet normal -0.923879532511287 0.382683432365089 0.0
outer loop
vertex 8.39711431702997 -2.25 0.0
vertex 8.84666621830081 -1.16468570296134 5.0
vertex 8.84666621830081 -1.16468570296134 0.0
endloop
endfacet
facet normal -0.99144486137381 0.130526192220052 0.0
outer loop
vertex 9.0 1.44731038470897e-15 5.0
vertex 8.84666621830081 -1.16468570296134 0.0
vertex 8.84666621830081 -1.16468570296134 5.0
endloop
endfacet
facet normal -0.99144486137381 0.130526192220052 0.0
outer loop
vertex 8.84666621830081 -1.16468570296134 0.0
vertex 9.0 1.44731038470897e-15 5.0
vertex 9.0 1.44731038470897e-15 0.0
endloop
endfacet
facet normal -1.0 0.0 0.0
outer loop
vertex 9.0 30.0 5.0
vertex 9.0 1.44731038470897e-15 0.0
vertex 9.0 1.44731038470897e-15 5.0
endloop
endfacet
facet normal -1.0 0.0 0.0
outer loop
vertex 9.0 1.44731038470897e-15 0.0
vertex 9.0 30.0 5.0
vertex 9.0 30.0 0.0
endloop
endfacet
facet normal -0.0 1.0 0.0
outer loop
vertex 9.0 30.0 5.0
vertex 10.150925789131 30.0 0.0
vertex 9.0 30.0 0.0
endloop
endfacet
facet normal -0.0 1.0 0.0
outer loop
vertex 10.150925789131 30.0 0.0
vertex 9.0 30.0 5.0
vertex 10.150925789131 30.0 5.0
endloop
endfacet
facet normal 1.0 0.0 0.0
outer loop
vertex 10.150925789131 30.0 0.0
vertex 10.150925789131 -0.0754356616629932 5.0
vertex 10.150925789131 -0.0754356616629932 0.0
endloop
endfacet
facet normal 1.0 0.0 0.0
outer loop
vertex 10.150925789131 -0.0754356616629932 5.0
vertex 10.150925789131 30.0 0.0
vertex 10.150925789131 30.0 5.0
endloop
endfacet
facet normal 0.991444861373811 -0.13052619222005 0.0
outer loop
vertex 10.150925789131 -0.0754356616629932 0.0
vertex 9.96796805481777 -1.46513762452759 5.0
vertex 9.96796805481777 -1.46513762452759 0.0
endloop
endfacet
facet normal 0.991444861373811 -0.13052619222005 0.0
outer loop
vertex 9.96796805481777 -1.46513762452759 5.0
vertex 10.150925789131 -0.0754356616629932 0.0
vertex 10.150925789131 -0.0754356616629932 5.0
endloop
endfacet
facet normal 0.923879532511287 -0.382683432365088 0.0
outer loop
vertex 9.96796805481777 -1.46513762452759 0.0
vertex 9.40244604054808 -2.83042854119805 5.0
vertex 9.40244604054808 -2.83042854119805 0.0
endloop
endfacet
facet normal 0.923879532511287 -0.382683432365088 0.0
outer loop
vertex 9.40244604054808 -2.83042854119805 5.0
vertex 9.96796805481777 -1.46513762452759 0.0
vertex 9.96796805481777 -1.46513762452759 5.0
endloop
endfacet
facet normal 0.793353340291235 -0.60876142900872 0.0
outer loop
vertex 9.40244604054808 -2.83042854119805 0.0
vertex 8.50283043029018 -4.00283043029017 5.0
vertex 8.50283043029018 -4.00283043029017 0.0
endloop
endfacet
facet normal 0.793353340291235 -0.60876142900872 0.0
outer loop
vertex 8.50283043029018 -4.00283043029017 5.0
vertex 9.40244604054808 -2.83042854119805 0.0
vertex 9.40244604054808 -2.83042854119805 5.0
endloop
endfacet
facet normal 0.608761429008721 -0.793353340291235 0.0
outer loop
vertex 8.50283043029018 -4.00283043029017 5.0
vertex 7.33042854119805 -4.90244604054808 0.0
vertex 8.50283043029018 -4.00283043029017 0.0
endloop
endfacet
facet normal 0.608761429008721 -0.793353340291235 0.0
outer loop
vertex 7.33042854119805 -4.90244604054808 0.0
vertex 8.50283043029018 -4.00283043029017 5.0
vertex 7.33042854119805 -4.90244604054808 5.0
endloop
endfacet
facet normal 0.38268343236509 -0.923879532511287 0.0
outer loop
vertex 7.33042854119805 -4.90244604054808 5.0
vertex 5.9651376245276 -5.46796805481777 0.0
vertex 7.33042854119805 -4.90244604054808 0.0
endloop
endfacet
facet normal 0.38268343236509 -0.923879532511287 0.0
outer loop
vertex 5.9651376245276 -5.46796805481777 0.0
vertex 7.33042854119805 -4.90244604054808 5.0
vertex 5.9651376245276 -5.46796805481777 5.0
endloop
endfacet
facet normal 0.130526192220051 -0.99144486137381 0.0
outer loop
vertex 5.9651376245276 -5.46796805481777 5.0
vertex 4.49999999999999 -5.6608570823961 0.0
vertex 5.9651376245276 -5.46796805481777 0.0
endloop
endfacet
facet normal 0.130526192220051 -0.99144486137381 0.0
outer loop
vertex 4.49999999999999 -5.6608570823961 0.0
vertex 5.9651376245276 -5.46796805481777 5.0
vertex 4.49999999999999 -5.6608570823961 5.0
endloop
endfacet
facet normal -0.130526192220052 -0.99144486137381 -0.0
outer loop
vertex 4.49999999999999 -5.6608570823961 5.0
vertex 3.0348623754724 -5.46796805481777 0.0
vertex 4.49999999999999 -5.6608570823961 0.0
endloop
endfacet
facet normal -0.130526192220052 -0.99144486137381 -0.0
outer loop
vertex 3.0348623754724 -5.46796805481777 0.0
vertex 4.49999999999999 -5.6608570823961 5.0
vertex 3.0348623754724 -5.46796805481777 5.0
endloop
endfacet
facet normal -0.382683432365091 -0.923879532511286 -0.0
outer loop
vertex 3.0348623754724 -5.46796805481777 5.0
vertex 1.66957145880196 -4.90244604054808 0.0
vertex 3.0348623754724 -5.46796805481777 0.0
endloop
endfacet
facet normal -0.382683432365091 -0.923879532511286 -0.0
outer loop
vertex 1.66957145880196 -4.90244604054808 0.0
vertex 3.0348623754724 -5.46796805481777 5.0
vertex 1.66957145880196 -4.90244604054808 5.0
endloop
endfacet
facet normal -0.60876142900872 -0.793353340291236 -0.0
outer loop
vertex 1.66957145880196 -4.90244604054808 5.0
vertex 0.497169569709828 -4.00283043029018 0.0
vertex 1.66957145880196 -4.90244604054808 0.0
endloop
endfacet
facet normal -0.60876142900872 -0.793353340291236 -0.0
outer loop
vertex 0.497169569709828 -4.00283043029018 0.0
vertex 1.66957145880196 -4.90244604054808 5.0
vertex 0.497169569709828 -4.00283043029018 5.0
endloop
endfacet
facet normal -0.793353340291235 -0.608761429008721 -0.0
outer loop
vertex -0.402446040548077 -2.83042854119805 5.0
vertex 0.497169569709828 -4.00283043029018 0.0
vertex 0.497169569709828 -4.00283043029018 5.0
endloop
endfacet
facet normal -0.793353340291235 -0.608761429008721 -0.0
outer loop
vertex 0.497169569709828 -4.00283043029018 0.0
vertex -0.402446040548077 -2.83042854119805 5.0
vertex -0.402446040548077 -2.83042854119805 0.0
endloop
endfacet
facet normal -0.923879532511287 -0.38268343236509 -0.0
outer loop
vertex -0.967968054817773 -1.4651376245276 5.0
vertex -0.402446040548077 -2.83042854119805 0.0
vertex -0.402446040548077 -2.83042854119805 5.0
endloop
endfacet
facet normal -0.923879532511287 -0.38268343236509 -0.0
outer loop
vertex -0.402446040548077 -2.83042854119805 0.0
vertex -0.967968054817773 -1.4651376245276 5.0
vertex -0.967968054817773 -1.4651376245276 0.0
endloop
endfacet
facet normal -0.99144486137381 -0.130526192220052 -0.0
outer loop
vertex -1.15092578913101 -0.0754356616629573 5.0
vertex -0.967968054817773 -1.4651376245276 0.0
vertex -0.967968054817773 -1.4651376245276 5.0
endloop
endfacet
facet normal -0.99144486137381 -0.130526192220052 -0.0
outer loop
vertex -0.967968054817773 -1.4651376245276 0.0
vertex -1.15092578913101 -0.0754356616629573 5.0
vertex -1.15092578913101 -0.0754356616629573 0.0
endloop
endfacet
facet normal -1.0 2.22687394170932e-16 0.0
outer loop
vertex -1.150925789131 30.0 5.0
vertex -1.15092578913101 -0.0754356616629573 0.0
vertex -1.15092578913101 -0.0754356616629573 5.0
endloop
endfacet
facet normal -1.0 2.22687394170932e-16 0.0
outer loop
vertex -1.15092578913101 -0.0754356616629573 0.0
vertex -1.150925789131 30.0 5.0
vertex -1.150925789131 30.0 0.0
endloop
endfacet
facet normal 0.0 0.0 -1.0
outer loop
vertex -19.2936099255748 28.6855644422768 0.0
vertex -20.4445357147058 -1.31443555772323 0.0
vertex -20.4445357147058 28.6855644422768 0.0
endloop
endfacet
facet normal 0.0 0.0 -1.0
outer loop
vertex -30.5954615038368 28.6855644422768 0.0
vertex -30.5954615038368 -2.58987121938622 0.0
vertex -30.5954615038368 -1.38987121938619 0.0
endloop
endfacet
facet normal 0.0 0.0 -1.0
outer loop
vertex -30.5954615038368 -2.58987121938622 0.0
vertex -30.5954615038368 28.6855644422768 0.0
vertex -29.4445357147058 -1.31443555772323 0.0
endloop
endfacet
facet normal 0.0 0.0 -1.0
outer loop
vertex -30.5954615038368 -2.58987121938622 0.0
vertex -29.4445357147058 -1.31443555772323 0.0
vertex -19.2936099255748 -2.58987121938622 0.0
endloop
endfacet
facet normal 0.0 0.0 -1.0
outer loop
vertex -29.4445357147058 -1.31443555772323 0.0
vertex -30.5954615038368 28.6855644422768 0.0
vertex -29.4445357147058 28.6855644422768 0.0
endloop
endfacet
facet normal 0.0 0.0 -1.0
outer loop
vertex -19.2936099255748 -2.58987121938622 0.0
vertex -29.4445357147058 -1.31443555772323 0.0
vertex -20.4445357147058 -1.31443555772323 0.0
endloop
endfacet
facet normal 0.0 0.0 -1.0
outer loop
vertex -19.2936099255748 -2.58987121938622 0.0
vertex -20.4445357147058 -1.31443555772323 0.0
vertex -19.2936099255748 28.6855644422768 0.0
endloop
endfacet
facet normal 0.0 0.0 -1.0
outer loop
vertex -19.2936099255748 -2.58987121938622 0.0
vertex -19.2936099255748 28.6855644422768 0.0
vertex -19.2936099255748 -1.38987121938622 0.0
endloop
endfacet
facet normal 0.0 0.0 1.0
outer loop
vertex -19.2936099255748 -2.58987121938622 5.0
vertex -30.5954615038368 -1.38987121938619 5.0
vertex -30.5954615038368 -2.58987121938622 5.0
endloop
endfacet
facet normal 0.0 0.0 1.0
outer loop
vertex -30.5954615038368 -1.38987121938619 5.0
vertex -19.2936099255748 -2.58987121938622 5.0
vertex -29.4445357147058 -1.31443555772323 5.0
endloop
endfacet
facet normal 0.0 0.0 1.0
outer loop
vertex -30.5954615038368 -1.38987121938619 5.0
vertex -29.4445357147058 -1.31443555772323 5.0
vertex -30.5954615038368 28.6855644422768 5.0
endloop
endfacet
facet normal 0.0 0.0 1.0
outer loop
vertex -29.4445357147058 -1.31443555772323 5.0
vertex -19.2936099255748 -2.58987121938622 5.0
vertex -20.4445357147058 -1.31443555772323 5.0
endloop
endfacet
facet normal 0.0 0.0 1.0
outer loop
vertex -20.4445357147058 -1.31443555772323 5.0
vertex -19.2936099255748 -2.58987121938622 5.0
vertex -20.4445357147058 28.6855644422768 5.0
endloop
endfacet
facet normal 0.0 0.0 1.0
outer loop
vertex -20.4445357147058 28.6855644422768 5.0
vertex -19.2936099255748 -2.58987121938622 5.0
vertex -19.2936099255748 28.6855644422768 5.0
endloop
endfacet
facet normal 0.0 0.0 1.0
outer loop
vertex -19.2936099255748 28.6855644422768 5.0
vertex -19.2936099255748 -2.58987121938622 5.0
vertex -19.2936099255748 -1.38987121938622 5.0
endloop
endfacet
facet normal 0.0 0.0 1.0
outer loop
vertex -29.4445357147058 28.6855644422768 5.0
vertex -30.5954615038368 28.6855644422768 5.0
vertex -29.4445357147058 -1.31443555772323 5.0
endloop
endfacet
facet normal -1.0 0.0 0.0
outer loop
vertex -30.5954615038368 -1.38987121938619 5.0
vertex -30.5954615038368 -2.58987121938622 0.0
vertex -30.5954615038368 -2.58987121938622 5.0
endloop
endfacet
facet normal -1.0 0.0 0.0
outer loop
vertex -30.5954615038368 -2.58987121938622 0.0
vertex -30.5954615038368 -1.38987121938619 5.0
vertex -30.5954615038368 -1.38987121938619 0.0
endloop
endfacet
facet normal -1.0 1.87526226670259e-16 0.0
outer loop
vertex -30.5954615038368 28.6855644422768 5.0
vertex -30.5954615038368 -1.38987121938619 0.0
vertex -30.5954615038368 -1.38987121938619 5.0
endloop
endfacet
facet normal -1.0 1.87526226670259e-16 0.0
outer loop
vertex -30.5954615038368 -1.38987121938619 0.0
vertex -30.5954615038368 28.6855644422768 5.0
vertex -30.5954615038368 28.6855644422768 0.0
endloop
endfacet
facet normal -0.0 1.0 0.0
outer loop
vertex -30.5954615038368 28.6855644422768 5.0
vertex -29.4445357147058 28.6855644422768 0.0
vertex -30.5954615038368 28.6855644422768 0.0
endloop
endfacet
facet normal -0.0 1.0 0.0
outer loop
vertex -29.4445357147058 28.6855644422768 0.0
vertex -30.5954615038368 28.6855644422768 5.0
vertex -29.4445357147058 28.6855644422768 5.0
endloop
endfacet
facet normal 1.0 0.0 0.0
outer loop
vertex -29.4445357147058 28.6855644422768 0.0
vertex -29.4445357147058 -1.31443555772323 5.0
vertex -29.4445357147058 -1.31443555772323 0.0
endloop
endfacet
facet normal 1.0 0.0 0.0
outer loop
vertex -29.4445357147058 -1.31443555772323 5.0
vertex -29.4445357147058 28.6855644422768 0.0
vertex -29.4445357147058 28.6855644422768 5.0
endloop
endfacet
facet normal -1.56664804585994e-16 1.0 0.0
outer loop
vertex -29.4445357147058 -1.31443555772323 5.0
vertex -20.4445357147058 -1.31443555772323 0.0
vertex -29.4445357147058 -1.31443555772323 0.0
endloop
endfacet
facet normal -1.56664804585994e-16 1.0 0.0
outer loop
vertex -20.4445357147058 -1.31443555772323 0.0
vertex -29.4445357147058 -1.31443555772323 5.0
vertex -20.4445357147058 -1.31443555772323 5.0
endloop
endfacet
facet normal -1.0 0.0 0.0
outer loop
vertex -20.4445357147058 28.6855644422768 5.0
vertex -20.4445357147058 -1.31443555772323 0.0
vertex -20.4445357147058 -1.31443555772323 5.0
endloop
endfacet
facet normal -1.0 0.0 0.0
outer loop
vertex -20.4445357147058 -1.31443555772323 0.0
vertex -20.4445357147058 28.6855644422768 5.0
vertex -20.4445357147058 28.6855644422768 0.0
endloop
endfacet
facet normal -0.0 1.0 0.0
outer loop
vertex -20.4445357147058 28.6855644422768 5.0
vertex -19.2936099255748 28.6855644422768 0.0
vertex -20.4445357147058 28.6855644422768 0.0
endloop
endfacet
facet normal -0.0 1.0 0.0
outer loop
vertex -19.2936099255748 28.6855644422768 0.0
vertex -20.4445357147058 28.6855644422768 5.0
vertex -19.2936099255748 28.6855644422768 5.0
endloop
endfacet
facet normal 1.0 0.0 0.0
outer loop
vertex -19.2936099255748 28.6855644422768 0.0
vertex -19.2936099255748 -1.38987121938622 5.0
vertex -19.2936099255748 -1.38987121938622 0.0
endloop
endfacet
facet normal 1.0 0.0 0.0
outer loop
vertex -19.2936099255748 -1.38987121938622 5.0
vertex -19.2936099255748 28.6855644422768 0.0
vertex -19.2936099255748 28.6855644422768 5.0
endloop
endfacet
facet normal 1.0 0.0 0.0
outer loop
vertex -19.2936099255748 -1.38987121938622 0.0
vertex -19.2936099255748 -2.58987121938622 5.0
vertex -19.2936099255748 -2.58987121938622 0.0
endloop
endfacet
facet normal 1.0 0.0 0.0
outer loop
vertex -19.2936099255748 -2.58987121938622 5.0
vertex -19.2936099255748 -1.38987121938622 0.0
vertex -19.2936099255748 -1.38987121938622 5.0
endloop
endfacet
facet normal -0.0 -1.0 -0.0
outer loop
vertex -19.2936099255748 -2.58987121938622 5.0
vertex -30.5954615038368 -2.58987121938622 0.0
vertex -19.2936099255748 -2.58987121938622 0.0
endloop
endfacet
facet normal -0.0 -1.0 -0.0
outer loop
vertex -30.5954615038368 -2.58987121938622 0.0
vertex -19.2936099255748 -2.58987121938622 5.0
vertex -30.5954615038368 -2.58987121938622 5.0
endloop
endfacet
endsolid Axis_Belt_Alignment
