solid extruder brace 3mm shorter
facet normal 0.0 0.0 1.0
  outer loop
    vertex 2.1000000000000005 19.761612330777886 21.86337917084601
    vertex -1.899999999999995 24.999999999999996 21.86337917084601
    vertex -1.899999999999995 19.761612330777886 21.86337917084601
  endloop
endfacet
facet normal 0.0 0.0 1.0
  outer loop
    vertex -1.899999999999995 24.999999999999996 21.86337917084601
    vertex 2.1000000000000005 19.761612330777886 21.86337917084601
    vertex 2.1000000000000005 24.999999999999996 21.86337917084601
  endloop
endfacet
facet normal -0.9909406640468005 0.0 -0.1343004107904592
  outer loop
    vertex 84.0 24.999999999999993 18.026882652847068
    vertex 84.0 0.0 15.0
    vertex 84.0 0.0 18.026882652847068
  endloop
endfacet
facet normal -1.0 0.0 0.0
  outer loop
    vertex 84.0 0.0 15.0
    vertex 84.0 24.999999999999993 18.026882652847068
    vertex 84.0 0.0 13.217975614279643
  endloop
endfacet
facet normal -0.9964023779371268 0.0 0.08474845863636314
  outer loop
    vertex 84.0 0.0 13.217975614279643
    vertex 84.0 24.999999999999993 18.026882652847068
    vertex 84.0 24.999999999999993 13.217975614279643
  endloop
endfacet
facet normal 0.7071067811865465 0.0 -0.7071067811865486
  outer loop
    vertex 81.40416305603426 24.999999999999993 7.595836943965733
    vertex 82.28566354876739 0.0 8.619951084045656
    vertex 81.40416305603426 0.0 7.595836943965733
  endloop
endfacet
facet normal 0.8044785055300369 0.0 -0.5939817624642685
  outer loop
    vertex 82.28566354876739 0.0 8.619951084045656
    vertex 81.40416305603426 24.999999999999993 7.595836943965733
    vertex 82.28566354876739 24.999999999999993 8.619951084045656
  endloop
endfacet
facet normal 1.0 0.0 0.0
  outer loop
    vertex 88.70000000000002 24.999999999999993 0.6
    vertex 88.70000000000002 2.8199664825478975e-15 23.591326925363752
    vertex 88.70000000000002 0.0 0.6
  endloop
endfacet
facet normal 1.0 0.0 0.0
  outer loop
    vertex 88.70000000000002 2.8199664825478975e-15 23.591326925363752
    vertex 88.70000000000002 24.999999999999993 0.6
    vertex 88.70000000000002 24.999999999999993 23.591326925363752
  endloop
endfacet
facet normal 0.7071067811865465 0.0 -0.7071067811865486
  outer loop
    vertex 81.40416305603426 24.999999999999993 7.595836943965733
    vertex 80.38004891595435 0.0 6.7143364512326205
    vertex 80.38004891595435 24.999999999999993 6.7143364512326205
  endloop
endfacet
facet normal 0.5939817624642683 0.0 -0.804478505530037
  outer loop
    vertex 80.38004891595435 0.0 6.7143364512326205
    vertex 81.40416305603426 24.999999999999993 7.595836943965733
    vertex 81.40416305603426 0.0 7.595836943965733
  endloop
endfacet
facet normal 0.4676237076451917 0.0 -0.8839276373369962
  outer loop
    vertex 79.236136878504 24.999999999999993 5.99508813446256
    vertex 77.99791161381913 0.0 5.454115783508784
    vertex 77.99791161381913 24.999999999999993 5.454115783508784
  endloop
endfacet
facet normal 0.33084768750456445 0.0 -0.9436841673318898
  outer loop
    vertex 77.99791161381913 0.0 5.454115783508784
    vertex 79.236136878504 24.999999999999993 5.99508813446256
    vertex 79.236136878504 0.0 5.99508813446256
  endloop
endfacet
facet normal 0.8044785055300369 0.0 -0.5939817624642685
  outer loop
    vertex 82.28566354876739 24.999999999999993 8.619951084045656
    vertex 83.00491186553744 0.0 9.763863121496
    vertex 82.28566354876739 0.0 8.619951084045656
  endloop
endfacet
facet normal 0.8839276373369973 0.0 -0.4676237076451896
  outer loop
    vertex 83.00491186553744 0.0 9.763863121496
    vertex 82.28566354876739 24.999999999999993 8.619951084045656
    vertex 83.00491186553744 24.999999999999993 9.763863121496
  endloop
endfacet
facet normal 0.5939817624642683 0.0 -0.804478505530037
  outer loop
    vertex 80.38004891595435 24.999999999999993 6.7143364512326205
    vertex 79.236136878504 0.0 5.99508813446256
    vertex 79.236136878504 24.999999999999993 5.99508813446256
  endloop
endfacet
facet normal 0.4676237076451917 0.0 -0.8839276373369962
  outer loop
    vertex 79.236136878504 0.0 5.99508813446256
    vertex 80.38004891595435 24.999999999999993 6.7143364512326205
    vertex 80.38004891595435 0.0 6.7143364512326205
  endloop
endfacet
facet normal 1.1557443948856898e-17 7.192314253595456e-18 -1.0
  outer loop
    vertex -1.899999999999995 24.999999999999993 0.6
    vertex 2.7006590122490106 -4.871183427972448 0.6
    vertex -1.899999999999995 -16.499999999999996 0.6
  endloop
endfacet
facet normal 1.1557443948856898e-17 7.192314253595456e-18 -1.0
  outer loop
    vertex 2.7006590122490106 -4.871183427972448 0.6
    vertex -1.899999999999995 24.999999999999993 0.6
    vertex 3.1571801682803837 -3.9454501007766045 0.6
  endloop
endfacet
facet normal 1.1557443948856898e-17 7.192314253595456e-18 -1.0
  outer loop
    vertex 3.1571801682803837 -3.9454501007766045 0.6
    vertex -1.899999999999995 24.999999999999993 0.6
    vertex 3.730628168746191 -3.0872245186904754 0.6
  endloop
endfacet
facet normal 1.1557443948856898e-17 7.192314253595456e-18 -1.0
  outer loop
    vertex 3.730628168746191 -3.0872245186904754 0.6
    vertex -1.899999999999995 24.999999999999993 0.6
    vertex 4.411191159368642 -2.3111911593686383 0.6
  endloop
endfacet
facet normal 1.1557443948856898e-17 7.192314253595456e-18 -1.0
  outer loop
    vertex 4.411191159368642 -2.3111911593686383 0.6
    vertex -1.899999999999995 24.999999999999993 0.6
    vertex 5.187224518690476 -1.6306281687461892 0.6
  endloop
endfacet
facet normal 1.1557443948856898e-17 7.192314253595456e-18 -1.0
  outer loop
    vertex 5.187224518690476 -1.6306281687461892 0.6
    vertex -1.899999999999995 24.999999999999993 0.6
    vertex 6.045450100776605 -1.0571801682803816 0.6
  endloop
endfacet
facet normal 1.1557443948856898e-17 7.192314253595456e-18 -1.0
  outer loop
    vertex 6.045450100776605 -1.0571801682803816 0.6
    vertex -1.899999999999995 24.999999999999993 0.6
    vertex 6.9711834279724485 -0.6006590122490116 0.6
  endloop
endfacet
facet normal 1.1557443948856898e-17 7.192314253595456e-18 -1.0
  outer loop
    vertex 6.9711834279724485 -0.6006590122490116 0.6
    vertex -1.899999999999995 24.999999999999993 0.6
    vertex 7.948584946387919 -0.2688759042033515 0.6
  endloop
endfacet
facet normal 1.1557443948856898e-17 7.192314253595456e-18 -1.0
  outer loop
    vertex 7.948584946387919 -0.2688759042033515 0.6
    vertex -1.899999999999995 24.999999999999993 0.6
    vertex 88.70000000000002 24.999999999999993 0.6
  endloop
endfacet
facet normal 1.1557443948856898e-17 7.192314253595456e-18 -1.0
  outer loop
    vertex -1.899999999999995 -16.499999999999996 0.6
    vertex 2.7006590122490106 -4.871183427972448 0.6
    vertex 2.368875904203349 -5.84858494638792 0.6
  endloop
endfacet
facet normal 1.1557443948856898e-17 7.192314253595456e-18 -1.0
  outer loop
    vertex -1.899999999999995 -16.499999999999996 0.6
    vertex 2.368875904203349 -5.84858494638792 0.6
    vertex 2.167507745109715 -6.860931045056031 0.6
  endloop
endfacet
facet normal 1.1557443948856898e-17 7.192314253595456e-18 -1.0
  outer loop
    vertex -1.899999999999995 -16.499999999999996 0.6
    vertex 2.167507745109715 -6.860931045056031 0.6
    vertex 2.1000000000000005 -7.89090020155321 0.6
  endloop
endfacet
facet normal 1.1557443948856898e-17 7.192314253595456e-18 -1.0
  outer loop
    vertex 7.948584946387919 -0.2688759042033515 0.6
    vertex 88.70000000000002 24.999999999999993 0.6
    vertex 8.960931045056032 -0.06750774510971459 0.6
  endloop
endfacet
facet normal 1.1557443948856898e-17 7.192314253595456e-18 -1.0
  outer loop
    vertex 8.960931045056032 -0.06750774510971459 0.6
    vertex 88.70000000000002 24.999999999999993 0.6
    vertex 9.990900201553211 0.0 0.6
  endloop
endfacet
facet normal 1.1557443948856898e-17 7.192314253595456e-18 -1.0
  outer loop
    vertex 9.990900201553211 0.0 0.6
    vertex 88.70000000000002 24.999999999999993 0.6
    vertex 88.70000000000002 0.0 0.6
  endloop
endfacet
facet normal 1.1557443948856898e-17 7.192314253595456e-18 -1.0
  outer loop
    vertex 2.1000000000000005 -16.499999999999996 0.6
    vertex -1.899999999999995 -16.499999999999996 0.6
    vertex 2.1000000000000005 -7.89090020155321 0.6
  endloop
endfacet
facet normal -1.0 6.289092557679511e-33 -2.0425455234906924e-32
  outer loop
    vertex -1.899999999999995 -16.4 9.79999999999999
    vertex -1.899999999999995 -16.499999999999996 0.6
    vertex -1.899999999999995 -16.499999999999996 1.4
  endloop
endfacet
facet normal -1.0 6.289092557679511e-33 -2.0425455234906924e-32
  outer loop
    vertex -1.899999999999995 -16.499999999999996 0.6
    vertex -1.899999999999995 -16.4 9.79999999999999
    vertex -1.899999999999995 -15.836067174374875 9.082158894953544
  endloop
endfacet
facet normal -1.0 6.289092557679511e-33 -2.0425455234906924e-32
  outer loop
    vertex -1.899999999999995 -16.499999999999996 0.6
    vertex -1.899999999999995 -15.836067174374875 9.082158894953544
    vertex -1.899999999999995 -15.217452793592695 8.410867354859887
  endloop
endfacet
facet normal -1.0 6.289092557679511e-33 -2.0425455234906924e-32
  outer loop
    vertex -1.899999999999995 -16.499999999999996 0.6
    vertex -1.899999999999995 -15.217452793592695 8.410867354859887
    vertex -1.899999999999995 -14.54798512148578 7.790279633489582
  endloop
endfacet
facet normal -1.0 6.289092557679511e-33 -2.0425455234906924e-32
  outer loop
    vertex -1.899999999999995 -16.499999999999996 0.6
    vertex -1.899999999999995 -14.54798512148578 7.790279633489582
    vertex -1.899999999999995 -13.831807124909838 7.2242362065934635
  endloop
endfacet
facet normal -1.0 6.289092557679511e-33 -2.0425455234906924e-32
  outer loop
    vertex -1.899999999999995 -16.499999999999996 0.6
    vertex -1.899999999999995 -13.831807124909838 7.2242362065934635
    vertex -1.899999999999995 -13.073350835202923 6.7162400053125335
  endloop
endfacet
facet normal -1.0 6.289092557679511e-33 -2.0425455234906924e-32
  outer loop
    vertex -1.899999999999995 -16.499999999999996 0.6
    vertex -1.899999999999995 -13.073350835202923 6.7162400053125335
    vertex -1.899999999999995 -12.277309920783502 6.269434738465634
  endloop
endfacet
facet normal -1.0 6.289092557679511e-33 -2.0425455234906924e-32
  outer loop
    vertex -1.899999999999995 -16.499999999999996 0.6
    vertex -1.899999999999995 -12.277309920783502 6.269434738465634
    vertex -1.899999999999995 -11.448610640620656 5.886585437866276
  endloop
endfacet
facet normal -1.0 6.289092557679511e-33 -2.0425455234906924e-32
  outer loop
    vertex -1.899999999999995 -16.499999999999996 0.6
    vertex -1.899999999999995 -11.448610640620656 5.886585437866276
    vertex -1.899999999999995 -10.59238135832939 5.570061347063032
  endloop
endfacet
facet normal -1.0 6.289092557679511e-33 -2.0425455234906924e-32
  outer loop
    vertex -1.899999999999995 -16.499999999999996 0.6
    vertex -1.899999999999995 -10.59238135832939 5.570061347063032
    vertex -1.899999999999995 -9.713920805551595 5.32182125939554
  endloop
endfacet
facet normal -1.0 6.289092557679511e-33 -2.0425455234906924e-32
  outer loop
    vertex -1.899999999999995 -16.499999999999996 0.6
    vertex -1.899999999999995 -9.713920805551595 5.32182125939554
    vertex -1.899999999999995 -8.81866529102305 5.143401396100929
  endloop
endfacet
facet normal -1.0 6.289092557679511e-33 -2.0425455234906924e-32
  outer loop
    vertex -1.899999999999995 -16.499999999999996 0.6
    vertex -1.899999999999995 -8.81866529102305 5.143401396100929
    vertex -1.899999999999995 24.999999999999993 0.6
  endloop
endfacet
facet normal -1.0 6.289092557679511e-33 -2.0425455234906924e-32
  outer loop
    vertex -1.899999999999995 24.999999999999993 0.6
    vertex -1.899999999999995 -8.81866529102305 5.143401396100929
    vertex -1.899999999999995 -7.912155058251563 5.0359058994863295
  endloop
endfacet
facet normal -1.0 6.289092557679511e-33 -2.0425455234906924e-32
  outer loop
    vertex -1.899999999999995 24.999999999999993 0.6
    vertex -1.899999999999995 -7.912155058251563 5.0359058994863295
    vertex -1.899999999999995 -6.999999999999998 4.999999999999999
  endloop
endfacet
facet normal -1.0 6.289092557679511e-33 -2.0425455234906924e-32
  outer loop
    vertex -1.899999999999995 24.999999999999993 0.6
    vertex -1.899999999999995 -6.999999999999998 4.999999999999999
    vertex -1.899999999999995 2.8999999999999977 4.999999999999994
  endloop
endfacet
facet normal -1.0 6.289092557679511e-33 -2.0425455234906924e-32
  outer loop
    vertex -1.899999999999995 24.999999999999993 0.6
    vertex -1.899999999999995 2.8999999999999977 4.999999999999994
    vertex -1.899999999999995 5.472050621353494 5.97600188950472
  endloop
endfacet
facet normal -1.0 6.289092557679511e-33 -2.0425455234906924e-32
  outer loop
    vertex -1.899999999999995 24.999999999999993 0.6
    vertex -1.899999999999995 5.472050621353494 5.97600188950472
    vertex -1.899999999999995 7.926783931203857 7.217899012712903
  endloop
endfacet
facet normal -1.0 6.289092557679511e-33 -2.0425455234906924e-32
  outer loop
    vertex -1.899999999999995 24.999999999999993 0.6
    vertex -1.899999999999995 7.926783931203857 7.217899012712903
    vertex -1.899999999999995 10.236803653323975 8.711831062887136
  endloop
endfacet
facet normal -1.0 6.289092557679511e-33 -2.0425455234906924e-32
  outer loop
    vertex -1.899999999999995 24.999999999999993 0.6
    vertex -1.899999999999995 10.236803653323975 8.711831062887136
    vertex -1.899999999999995 12.376328600754215 10.441124874373582
  endloop
endfacet
facet normal -1.0 6.289092557679511e-33 -2.0425455234906924e-32
  outer loop
    vertex -1.899999999999995 24.999999999999993 0.6
    vertex -1.899999999999995 12.376328600754215 10.441124874373582
    vertex -1.899999999999995 14.32148040910388 12.38648050499636
  endloop
endfacet
facet normal -1.0 6.289092557679511e-33 -2.0425455234906924e-32
  outer loop
    vertex -1.899999999999995 24.999999999999993 0.6
    vertex -1.899999999999995 14.32148040910388 12.38648050499636
    vertex -1.899999999999995 16.050550033226845 14.526186634832163
  endloop
endfacet
facet normal -1.0 6.289092557679511e-33 -2.0425455234906924e-32
  outer loop
    vertex -1.899999999999995 24.999999999999993 0.6
    vertex -1.899999999999995 16.050550033226845 14.526186634832163
    vertex -1.899999999999995 17.544240033010862 16.83636287738746
  endloop
endfacet
facet normal -1.0 6.289092557679511e-33 -2.0425455234906924e-32
  outer loop
    vertex -1.899999999999995 24.999999999999993 0.6
    vertex -1.899999999999995 17.544240033010862 16.83636287738746
    vertex -1.899999999999995 18.785879944227663 19.29122629884195
  endloop
endfacet
facet normal -1.0 6.289092557679511e-33 -2.0425455234906924e-32
  outer loop
    vertex -1.899999999999995 24.999999999999993 0.6
    vertex -1.899999999999995 18.785879944227663 19.29122629884195
    vertex -1.899999999999995 19.761612330777883 21.86337917084601
  endloop
endfacet
facet normal -1.0 6.289092557679511e-33 -2.0425455234906924e-32
  outer loop
    vertex -1.899999999999995 24.999999999999993 0.6
    vertex -1.899999999999995 19.761612330777883 21.86337917084601
    vertex -1.899999999999995 24.999999999999993 21.86337917084601
  endloop
endfacet
facet normal 0.38268343236508895 -0.9238795325112873 1.251800881323611e-18
  outer loop
    vertex 6.9711834279724485 -0.6006590122490116 4.999999999999998
    vertex 6.045450100776605 -1.0571801682803816 0.6
    vertex 6.9711834279724485 -0.6006590122490116 0.6
  endloop
endfacet
facet normal 0.49999999999999983 -0.8660254037844388 0.0
  outer loop
    vertex 6.045450100776605 -1.0571801682803816 0.6
    vertex 6.9711834279724485 -0.6006590122490116 4.999999999999998
    vertex 6.045450100776605 -1.0571801682803816 4.999999999999998
  endloop
endfacet
facet normal 0.49999999999999983 -0.8660254037844388 0.0
  outer loop
    vertex 6.045450100776605 -1.0571801682803816 4.999999999999998
    vertex 5.187224518690476 -1.6306281687461892 0.6
    vertex 6.045450100776605 -1.0571801682803816 0.6
  endloop
endfacet
facet normal 0.6087614290087208 -0.793353340291235 -2.2806021365303066e-33
  outer loop
    vertex 5.187224518690476 -1.6306281687461892 0.6
    vertex 6.045450100776605 -1.0571801682803816 4.999999999999998
    vertex 5.187224518690476 -1.6306281687461892 4.999999999999998
  endloop
endfacet
facet normal 0.6087614290087208 -0.793353340291235 -2.2806021365303066e-33
  outer loop
    vertex 5.187224518690476 -1.6306281687461892 4.999999999999998
    vertex 4.411191159368642 -2.3111911593686383 0.6
    vertex 5.187224518690476 -1.6306281687461892 0.6
  endloop
endfacet
facet normal 0.7071067811865478 -0.7071067811865474 3.1992619321250027e-34
  outer loop
    vertex 4.411191159368642 -2.3111911593686383 0.6
    vertex 5.187224518690476 -1.6306281687461892 4.999999999999998
    vertex 4.411191159368642 -2.3111911593686383 4.999999999999998
  endloop
endfacet
facet normal 0.7071067811865478 -0.7071067811865474 3.1992619321250027e-34
  outer loop
    vertex 4.411191159368642 -2.3111911593686383 0.6
    vertex 3.730628168746191 -3.0872245186904754 4.999999999999998
    vertex 3.730628168746191 -3.0872245186904754 0.6
  endloop
endfacet
facet normal 0.7933533402912354 -0.6087614290087204 2.600528329742807e-33
  outer loop
    vertex 3.730628168746191 -3.0872245186904754 4.999999999999998
    vertex 4.411191159368642 -2.3111911593686383 0.6
    vertex 4.411191159368642 -2.3111911593686383 4.999999999999998
  endloop
endfacet
facet normal 0.7933533402912354 -0.6087614290087204 2.600528329742807e-33
  outer loop
    vertex 3.730628168746191 -3.0872245186904754 0.6
    vertex 3.1571801682803837 -3.9454501007766045 4.999999999999998
    vertex 3.1571801682803837 -3.9454501007766045 0.6
  endloop
endfacet
facet normal 0.8660254037844384 -0.5000000000000008 0.0
  outer loop
    vertex 3.1571801682803837 -3.9454501007766045 4.999999999999998
    vertex 3.730628168746191 -3.0872245186904754 0.6
    vertex 3.730628168746191 -3.0872245186904754 4.999999999999998
  endloop
endfacet
facet normal 0.8660254037844384 -0.5000000000000008 0.0
  outer loop
    vertex 3.1571801682803837 -3.9454501007766045 0.6
    vertex 2.7006590122490106 -4.871183427972448 4.999999999999998
    vertex 2.7006590122490106 -4.871183427972448 0.6
  endloop
endfacet
facet normal 0.9238795325112865 -0.38268343236509034 -3.2753235510317146e-33
  outer loop
    vertex 2.7006590122490106 -4.871183427972448 4.999999999999998
    vertex 3.1571801682803837 -3.9454501007766045 0.6
    vertex 3.1571801682803837 -3.9454501007766045 4.999999999999998
  endloop
endfacet
facet normal 0.9238795325112865 -0.38268343236509034 -3.2753235510317146e-33
  outer loop
    vertex 2.7006590122490106 -4.871183427972448 0.6
    vertex 2.368875904203349 -5.84858494638792 4.999999999999998
    vertex 2.368875904203349 -5.84858494638792 0.6
  endloop
endfacet
facet normal 0.9659258262890684 -0.2588190451025204 -3.2753235510317146e-33
  outer loop
    vertex 2.368875904203349 -5.84858494638792 4.999999999999998
    vertex 2.7006590122490106 -4.871183427972448 0.6
    vertex 2.7006590122490106 -4.871183427972448 4.999999999999998
  endloop
endfacet
facet normal -2.378613169319285e-17 -6.620889325144389e-18 1.0
  outer loop
    vertex 2.167507745109715 -6.860931045056031 4.999999999999998
    vertex 2.1000000000000005 -6.999999999999998 4.999999999999999
    vertex 2.1000000000000005 -7.89090020155321 4.999999999999998
  endloop
endfacet
facet normal -1.784218782220217e-17 0.009834764427713617 0.9999516375348617
  outer loop
    vertex 2.1000000000000005 -6.999999999999998 4.999999999999999
    vertex 2.167507745109715 -6.860931045056031 4.999999999999998
    vertex 2.1000000000000005 2.8999999999999977 4.999999999999994
  endloop
endfacet
facet normal -2.378613169319285e-17 -6.620889325144389e-18 1.0
  outer loop
    vertex 2.1000000000000005 2.8999999999999977 4.999999999999994
    vertex 2.167507745109715 -6.860931045056031 4.999999999999998
    vertex 2.1000000000000005 24.999999999999993 4.999999999999999
  endloop
endfacet
facet normal -2.378613169319285e-17 -6.620889325144389e-18 1.0
  outer loop
    vertex 2.1000000000000005 24.999999999999993 4.999999999999999
    vertex 2.167507745109715 -6.860931045056031 4.999999999999998
    vertex 2.368875904203349 -5.84858494638792 4.999999999999998
  endloop
endfacet
facet normal -2.378613169319285e-17 -6.620889325144389e-18 1.0
  outer loop
    vertex 2.1000000000000005 24.999999999999993 4.999999999999999
    vertex 2.368875904203349 -5.84858494638792 4.999999999999998
    vertex 2.7006590122490106 -4.871183427972448 4.999999999999998
  endloop
endfacet
facet normal -2.378613169319285e-17 -6.620889325144389e-18 1.0
  outer loop
    vertex 2.1000000000000005 24.999999999999993 4.999999999999999
    vertex 2.7006590122490106 -4.871183427972448 4.999999999999998
    vertex 3.1571801682803837 -3.9454501007766045 4.999999999999998
  endloop
endfacet
facet normal -2.378613169319285e-17 -6.620889325144389e-18 1.0
  outer loop
    vertex 2.1000000000000005 24.999999999999993 4.999999999999999
    vertex 3.1571801682803837 -3.9454501007766045 4.999999999999998
    vertex 3.730628168746191 -3.0872245186904754 4.999999999999998
  endloop
endfacet
facet normal -2.378613169319285e-17 -6.620889325144389e-18 1.0
  outer loop
    vertex 2.1000000000000005 24.999999999999993 4.999999999999999
    vertex 3.730628168746191 -3.0872245186904754 4.999999999999998
    vertex 4.411191159368642 -2.3111911593686383 4.999999999999998
  endloop
endfacet
facet normal -2.378613169319285e-17 -6.620889325144389e-18 1.0
  outer loop
    vertex 2.1000000000000005 24.999999999999993 4.999999999999999
    vertex 4.411191159368642 -2.3111911593686383 4.999999999999998
    vertex 5.187224518690476 -1.6306281687461892 4.999999999999998
  endloop
endfacet
facet normal -2.378613169319285e-17 -6.620889325144389e-18 1.0
  outer loop
    vertex 2.1000000000000005 24.999999999999993 4.999999999999999
    vertex 5.187224518690476 -1.6306281687461892 4.999999999999998
    vertex 6.045450100776605 -1.0571801682803816 4.999999999999998
  endloop
endfacet
facet normal -2.378613169319285e-17 -6.620889325144389e-18 1.0
  outer loop
    vertex 2.1000000000000005 24.999999999999993 4.999999999999999
    vertex 6.045450100776605 -1.0571801682803816 4.999999999999998
    vertex 6.9711834279724485 -0.6006590122490116 4.999999999999998
  endloop
endfacet
facet normal -2.378613169319285e-17 -6.620889325144389e-18 1.0
  outer loop
    vertex 2.1000000000000005 24.999999999999993 4.999999999999999
    vertex 6.9711834279724485 -0.6006590122490116 4.999999999999998
    vertex 75.78202438572038 24.999999999999993 4.999999999999999
  endloop
endfacet
facet normal -2.378613169319285e-17 -6.620889325144389e-18 1.0
  outer loop
    vertex 75.78202438572038 24.999999999999993 4.999999999999999
    vertex 6.9711834279724485 -0.6006590122490116 4.999999999999998
    vertex 7.948584946387919 -0.2688759042033515 4.999999999999998
  endloop
endfacet
facet normal -2.378613169319285e-17 -6.620889325144389e-18 1.0
  outer loop
    vertex 75.78202438572038 24.999999999999993 4.999999999999999
    vertex 7.948584946387919 -0.2688759042033515 4.999999999999998
    vertex 8.960931045056032 -0.06750774510971459 4.999999999999998
  endloop
endfacet
facet normal -2.378613169319285e-17 -6.620889325144389e-18 1.0
  outer loop
    vertex 75.78202438572038 24.999999999999993 4.999999999999999
    vertex 8.960931045056032 -0.06750774510971459 4.999999999999998
    vertex 9.990900201553211 0.0 4.999999999999998
  endloop
endfacet
facet normal -2.378613169319285e-17 -6.620889325144389e-18 1.0
  outer loop
    vertex 75.78202438572038 24.999999999999993 4.999999999999999
    vertex 9.990900201553211 0.0 4.999999999999998
    vertex 74.0 0.0 4.999999999999999
  endloop
endfacet
facet normal -2.378613169319285e-17 -6.620889325144389e-18 1.0
  outer loop
    vertex 75.78202438572038 24.999999999999993 4.999999999999999
    vertex 74.0 0.0 4.999999999999999
    vertex 75.78202438572038 0.0 4.999999999999999
  endloop
endfacet
facet normal -1.784218782220217e-17 0.009834764427713617 0.9999516375348617
  outer loop
    vertex 2.1000000000000005 -6.999999999999998 4.999999999999999
    vertex -1.899999999999995 2.8999999999999977 4.999999999999994
    vertex -1.899999999999995 -6.999999999999998 4.999999999999999
  endloop
endfacet
facet normal -2.378613169319285e-17 -6.620889325144389e-18 1.0
  outer loop
    vertex -1.899999999999995 2.8999999999999977 4.999999999999994
    vertex 2.1000000000000005 -6.999999999999998 4.999999999999999
    vertex 2.1000000000000005 2.8999999999999977 4.999999999999994
  endloop
endfacet
facet normal 0.0 -0.9999822863064056 0.005952064634556164
  outer loop
    vertex 2.1000000000000005 -16.499999999999996 1.4
    vertex -1.899999999999995 -16.499999999999996 0.6
    vertex 2.1000000000000005 -16.499999999999996 0.6
  endloop
endfacet
facet normal 0.0 -1.0 0.0
  outer loop
    vertex -1.899999999999995 -16.499999999999996 0.6
    vertex 2.1000000000000005 -16.499999999999996 1.4
    vertex -1.899999999999995 -16.499999999999996 1.4
  endloop
endfacet
facet normal 0.9914448613738105 -0.1305261922200509 2.547033069956056e-19
  outer loop
    vertex 2.167507745109715 -6.860931045056031 0.6
    vertex 2.1000000000000005 -7.89090020155321 4.999999999999998
    vertex 2.1000000000000005 -7.89090020155321 0.6
  endloop
endfacet
facet normal 0.9998662095953933 -0.016357350315414666 1.2713003067189622e-19
  outer loop
    vertex 2.1000000000000005 -7.89090020155321 4.999999999999998
    vertex 2.167507745109715 -6.860931045056031 0.6
    vertex 2.167507745109715 -6.860931045056031 4.999999999999998
  endloop
endfacet
facet normal 0.25881904510252096 -0.9659258262890682 2.01155275811065e-18
  outer loop
    vertex 7.948584946387919 -0.2688759042033515 4.999999999999998
    vertex 6.9711834279724485 -0.6006590122490116 0.6
    vertex 7.948584946387919 -0.2688759042033515 0.6
  endloop
endfacet
facet normal 0.38268343236508895 -0.9238795325112873 1.251800881323611e-18
  outer loop
    vertex 6.9711834279724485 -0.6006590122490116 0.6
    vertex 7.948584946387919 -0.2688759042033515 4.999999999999998
    vertex 6.9711834279724485 -0.6006590122490116 4.999999999999998
  endloop
endfacet
facet normal 0.0 0.7081467398428178 0.7060652907840665
  outer loop
    vertex 2.1000000000000005 -15.217452793592695 8.410867354859887
    vertex -1.899999999999995 -14.54798512148578 7.790279633489582
    vertex -1.899999999999995 -15.217452793592695 8.410867354859887
  endloop
endfacet
facet normal 0.0 0.6504547321926714 0.7595450226077191
  outer loop
    vertex -1.899999999999995 -14.54798512148578 7.790279633489582
    vertex 2.1000000000000005 -15.217452793592695 8.410867354859887
    vertex 2.1000000000000005 -14.54798512148578 7.790279633489582
  endloop
endfacet
facet normal 0.0 0.6504547321926714 0.7595450226077191
  outer loop
    vertex 2.1000000000000005 -14.54798512148578 7.790279633489582
    vertex -1.899999999999995 -13.831807124909838 7.2242362065934635
    vertex -1.899999999999995 -14.54798512148578 7.790279633489582
  endloop
endfacet
facet normal 0.0 0.5887374183046193 0.8083243484443677
  outer loop
    vertex -1.899999999999995 -13.831807124909838 7.2242362065934635
    vertex 2.1000000000000005 -14.54798512148578 7.790279633489582
    vertex 2.1000000000000005 -13.831807124909838 7.2242362065934635
  endloop
endfacet
facet normal 0.0 0.7863636705099059 0.6177638526995478
  outer loop
    vertex -1.899999999999995 -16.4 9.79999999999999
    vertex 2.1000000000000005 -15.836067174374875 9.082158894953544
    vertex -1.899999999999995 -15.836067174374875 9.082158894953544
  endloop
endfacet
facet normal 0.0 0.7614564171813177 0.648216109591077
  outer loop
    vertex 2.1000000000000005 -15.836067174374875 9.082158894953544
    vertex -1.899999999999995 -16.4 9.79999999999999
    vertex 2.1000000000000005 -16.4 9.79999999999999
  endloop
endfacet
facet normal 0.0 0.45477715654866513 0.8906052649078104
  outer loop
    vertex 2.1000000000000005 -12.277309920783502 6.269434738465634
    vertex -1.899999999999995 -11.448610640620656 5.886585437866276
    vertex -1.899999999999995 -12.277309920783502 6.269434738465634
  endloop
endfacet
facet normal 0.0 0.38336321499064724 0.923597664241327
  outer loop
    vertex -1.899999999999995 -11.448610640620656 5.886585437866276
    vertex 2.1000000000000005 -12.277309920783502 6.269434738465634
    vertex 2.1000000000000005 -11.448610640620656 5.886585437866276
  endloop
endfacet
facet normal 0.0 0.38336321499064724 0.923597664241327
  outer loop
    vertex 2.1000000000000005 -11.448610640620656 5.886585437866276
    vertex -1.899999999999995 -10.59238135832939 5.570061347063032
    vertex -1.899999999999995 -11.448610640620656 5.886585437866276
  endloop
endfacet
facet normal 0.0 0.30957684955082515 0.9508744261058796
  outer loop
    vertex -1.899999999999995 -10.59238135832939 5.570061347063032
    vertex 2.1000000000000005 -11.448610640620656 5.886585437866276
    vertex 2.1000000000000005 -10.59238135832939 5.570061347063032
  endloop
endfacet
facet normal 0.13052619222005216 -0.9914448613738105 7.597518767870391e-19
  outer loop
    vertex 8.960931045056032 -0.06750774510971459 4.999999999999998
    vertex 7.948584946387919 -0.2688759042033515 0.6
    vertex 8.960931045056032 -0.06750774510971459 0.6
  endloop
endfacet
facet normal 0.25881904510252096 -0.9659258262890682 2.01155275811065e-18
  outer loop
    vertex 7.948584946387919 -0.2688759042033515 0.6
    vertex 8.960931045056032 -0.06750774510971459 4.999999999999998
    vertex 7.948584946387919 -0.2688759042033515 4.999999999999998
  endloop
endfacet
facet normal 0.0 -0.4979370563550163 0.8672131732789242
  outer loop
    vertex 2.1000000000000005 7.926783931203857 7.217899012712903
    vertex -1.899999999999995 10.236803653323975 8.711831062887136
    vertex -1.899999999999995 7.926783931203857 7.217899012712903
  endloop
endfacet
facet normal 0.0 -0.5866461302254473 0.8098433909661222
  outer loop
    vertex -1.899999999999995 10.236803653323975 8.711831062887136
    vertex 2.1000000000000005 7.926783931203857 7.217899012712903
    vertex 2.1000000000000005 10.236803653323975 8.711831062887136
  endloop
endfacet
facet normal 0.032719082821775936 -0.9994645874763658 2.805118425524907e-17
  outer loop
    vertex 9.990900201553211 0.0 4.999999999999998
    vertex 8.960931045056032 -0.06750774510971459 0.6
    vertex 9.990900201553211 0.0 0.6
  endloop
endfacet
facet normal 0.13052619222005216 -0.9914448613738105 7.597518767870391e-19
  outer loop
    vertex 8.960931045056032 -0.06750774510971459 0.6
    vertex 9.990900201553211 0.0 4.999999999999998
    vertex 8.960931045056032 -0.06750774510971459 4.999999999999998
  endloop
endfacet
facet normal 0.0 0.30957684955082515 0.9508744261058796
  outer loop
    vertex 2.1000000000000005 -10.59238135832939 5.570061347063032
    vertex -1.899999999999995 -9.713920805551595 5.32182125939554
    vertex -1.899999999999995 -10.59238135832939 5.570061347063032
  endloop
endfacet
facet normal 0.0 0.23387468342275755 0.9722667496391643
  outer loop
    vertex -1.899999999999995 -9.713920805551595 5.32182125939554
    vertex 2.1000000000000005 -10.59238135832939 5.570061347063032
    vertex 2.1000000000000005 -9.713920805551595 5.32182125939554
  endloop
endfacet
facet normal 0.0 0.5887374183046193 0.8083243484443677
  outer loop
    vertex 2.1000000000000005 -13.831807124909838 7.2242362065934635
    vertex -1.899999999999995 -13.073350835202923 6.7162400053125335
    vertex -1.899999999999995 -13.831807124909838 7.2242362065934635
  endloop
endfacet
facet normal 0.0 0.5233767326566231 0.8521013999012544
  outer loop
    vertex -1.899999999999995 -13.073350835202923 6.7162400053125335
    vertex 2.1000000000000005 -13.831807124909838 7.2242362065934635
    vertex 2.1000000000000005 -13.073350835202923 6.7162400053125335
  endloop
endfacet
facet normal 0.0 0.23387468342275755 0.9722667496391643
  outer loop
    vertex 2.1000000000000005 -9.713920805551595 5.32182125939554
    vertex -1.899999999999995 -8.81866529102305 5.143401396100929
    vertex -1.899999999999995 -9.713920805551595 5.32182125939554
  endloop
endfacet
facet normal 0.0 0.15672519563573878 0.9876422495281071
  outer loop
    vertex -1.899999999999995 -8.81866529102305 5.143401396100929
    vertex 2.1000000000000005 -9.713920805551595 5.32182125939554
    vertex 2.1000000000000005 -8.81866529102305 5.143401396100929
  endloop
endfacet
facet normal 0.0 -0.9999291458531723 0.011903918403013946
  outer loop
    vertex 2.1000000000000005 -16.4 9.79999999999999
    vertex -1.899999999999995 -16.499999999999996 1.4
    vertex 2.1000000000000005 -16.499999999999996 1.4
  endloop
endfacet
facet normal 0.0 -0.9999822863064056 0.005952064634556164
  outer loop
    vertex -1.899999999999995 -16.499999999999996 1.4
    vertex 2.1000000000000005 -16.4 9.79999999999999
    vertex -1.899999999999995 -16.4 9.79999999999999
  endloop
endfacet
facet normal 0.0 0.7614564171813177 0.648216109591077
  outer loop
    vertex -1.899999999999995 -15.836067174374875 9.082158894953544
    vertex 2.1000000000000005 -15.217452793592695 8.410867354859887
    vertex -1.899999999999995 -15.217452793592695 8.410867354859887
  endloop
endfacet
facet normal 0.0 0.7081467398428178 0.7060652907840665
  outer loop
    vertex 2.1000000000000005 -15.217452793592695 8.410867354859887
    vertex -1.899999999999995 -15.836067174374875 9.082158894953544
    vertex 2.1000000000000005 -15.836067174374875 9.082158894953544
  endloop
endfacet
facet normal 0.0 0.5233767326566231 0.8521013999012544
  outer loop
    vertex 2.1000000000000005 -13.073350835202923 6.7162400053125335
    vertex -1.899999999999995 -12.277309920783502 6.269434738465634
    vertex -1.899999999999995 -13.073350835202923 6.7162400053125335
  endloop
endfacet
facet normal 0.0 0.45477715654866513 0.8906052649078104
  outer loop
    vertex -1.899999999999995 -12.277309920783502 6.269434738465634
    vertex 2.1000000000000005 -13.073350835202923 6.7162400053125335
    vertex 2.1000000000000005 -12.277309920783502 6.269434738465634
  endloop
endfacet
facet normal 0.0 -0.3547802256637521 0.9349497267115368
  outer loop
    vertex 2.1000000000000005 2.8999999999999977 4.999999999999994
    vertex -1.899999999999995 5.472050621353494 5.97600188950472
    vertex -1.899999999999995 2.8999999999999977 4.999999999999994
  endloop
endfacet
facet normal 0.0 -0.40367071030154283 0.9149043434396013
  outer loop
    vertex -1.899999999999995 5.472050621353494 5.97600188950472
    vertex 2.1000000000000005 2.8999999999999977 4.999999999999994
    vertex 2.1000000000000005 5.472050621353494 5.97600188950472
  endloop
endfacet
facet normal 0.0 -0.40367071030154283 0.9149043434396013
  outer loop
    vertex 2.1000000000000005 5.472050621353494 5.97600188950472
    vertex -1.899999999999995 7.926783931203857 7.217899012712903
    vertex -1.899999999999995 5.472050621353494 5.97600188950472
  endloop
endfacet
facet normal 0.0 -0.4979370563550163 0.8672131732789242
  outer loop
    vertex -1.899999999999995 7.926783931203857 7.217899012712903
    vertex 2.1000000000000005 5.472050621353494 5.97600188950472
    vertex 2.1000000000000005 7.926783931203857 7.217899012712903
  endloop
endfacet
facet normal 0.0 0.15672519563573878 0.9876422495281071
  outer loop
    vertex 2.1000000000000005 -8.81866529102305 5.143401396100929
    vertex -1.899999999999995 -7.912155058251563 5.0359058994863295
    vertex -1.899999999999995 -8.81866529102305 5.143401396100929
  endloop
endfacet
facet normal 0.0 0.07860582189600765 0.9969057752686826
  outer loop
    vertex -1.899999999999995 -7.912155058251563 5.0359058994863295
    vertex 2.1000000000000005 -8.81866529102305 5.143401396100929
    vertex 2.1000000000000005 -7.912155058251563 5.0359058994863295
  endloop
endfacet
facet normal 0.0 0.07860582189600765 0.9969057752686826
  outer loop
    vertex 2.1000000000000005 -7.912155058251563 5.0359058994863295
    vertex -1.899999999999995 -6.999999999999998 4.999999999999999
    vertex -1.899999999999995 -7.912155058251563 5.0359058994863295
  endloop
endfacet
facet normal -1.1895367393445956e-17 0.019670480536597253 0.9998065173799675
  outer loop
    vertex -1.899999999999995 -6.999999999999998 4.999999999999999
    vertex 2.1000000000000005 -7.912155058251563 5.0359058994863295
    vertex 2.1000000000000005 -6.999999999999998 4.999999999999999
  endloop
endfacet
facet normal -0.9698139792092004 4.986868015361551e-21 -0.24384594671721863
  outer loop
    vertex 81.1650861526108 2.8199664825478975e-15 23.591326925363752
    vertex 81.46508908438217 24.999999999999993 22.398167715819717
    vertex 81.46508908438217 0.0 22.398167715819717
  endloop
endfacet
facet normal -0.9698139792092004 4.986868015361551e-21 -0.24384594671721863
  outer loop
    vertex 81.46508908438217 24.999999999999993 22.398167715819717
    vertex 81.1650861526108 2.8199664825478975e-15 23.591326925363752
    vertex 81.1650861526108 24.999999999999993 23.591326925363752
  endloop
endfacet
facet normal 0.0 0.0 1.0
  outer loop
    vertex 88.70000000000002 2.8199664825478975e-15 23.591326925363752
    vertex 81.1650861526108 24.999999999999993 23.591326925363752
    vertex 81.1650861526108 2.8199664825478975e-15 23.591326925363752
  endloop
endfacet
facet normal 0.0 0.0 1.0
  outer loop
    vertex 81.1650861526108 24.999999999999993 23.591326925363752
    vertex 88.70000000000002 2.8199664825478975e-15 23.591326925363752
    vertex 88.70000000000002 24.999999999999993 23.591326925363752
  endloop
endfacet
facet normal 0.0 -0.8099048548762535 0.5865612722025509
  outer loop
    vertex 2.1000000000000005 16.050550033226845 14.526186634832163
    vertex -1.899999999999995 14.32148040910388 12.38648050499636
    vertex 2.1000000000000005 14.32148040910388 12.38648050499636
  endloop
endfacet
facet normal 0.0 -0.7435053503418652 0.6687299858784714
  outer loop
    vertex -1.899999999999995 14.32148040910388 12.38648050499636
    vertex 2.1000000000000005 16.050550033226845 14.526186634832163
    vertex -1.899999999999995 16.050550033226845 14.526186634832163
  endloop
endfacet
facet normal 0.0 -0.9149466347413492 0.40357484507273256
  outer loop
    vertex 2.1000000000000005 18.785879944227663 19.29122629884195
    vertex -1.899999999999995 17.544240033010862 16.83636287738746
    vertex 2.1000000000000005 17.544240033010862 16.83636287738746
  endloop
endfacet
facet normal 0.0 -0.8672653420017723 0.49784618765493116
  outer loop
    vertex -1.899999999999995 17.544240033010862 16.83636287738746
    vertex 2.1000000000000005 18.785879944227663 19.29122629884195
    vertex -1.899999999999995 18.785879944227663 19.29122629884195
  endloop
endfacet
facet normal 0.0 -0.5866461302254473 0.8098433909661222
  outer loop
    vertex 2.1000000000000005 10.236803653323975 8.711831062887136
    vertex -1.899999999999995 12.376328600754215 10.441124874373582
    vertex -1.899999999999995 10.236803653323975 8.711831062887136
  endloop
endfacet
facet normal 0.0 -0.6688078861584332 0.7434352772180562
  outer loop
    vertex -1.899999999999995 12.376328600754215 10.441124874373582
    vertex 2.1000000000000005 10.236803653323975 8.711831062887136
    vertex 2.1000000000000005 12.376328600754215 10.441124874373582
  endloop
endfacet
facet normal 0.0 -0.7435053503418652 0.6687299858784714
  outer loop
    vertex 2.1000000000000005 14.32148040910388 12.38648050499636
    vertex -1.899999999999995 12.376328600754215 10.441124874373582
    vertex 2.1000000000000005 12.376328600754215 10.441124874373582
  endloop
endfacet
facet normal 0.0 -0.6688078861584332 0.7434352772180562
  outer loop
    vertex -1.899999999999995 12.376328600754215 10.441124874373582
    vertex 2.1000000000000005 14.32148040910388 12.38648050499636
    vertex -1.899999999999995 14.32148040910388 12.38648050499636
  endloop
endfacet
facet normal 0.0 -0.8672653420017723 0.49784618765493116
  outer loop
    vertex 2.1000000000000005 17.544240033010862 16.83636287738746
    vertex -1.899999999999995 16.050550033226845 14.526186634832163
    vertex 2.1000000000000005 16.050550033226845 14.526186634832163
  endloop
endfacet
facet normal 0.0 -0.8099048548762535 0.5865612722025509
  outer loop
    vertex -1.899999999999995 16.050550033226845 14.526186634832163
    vertex 2.1000000000000005 17.544240033010862 16.83636287738746
    vertex -1.899999999999995 17.544240033010862 16.83636287738746
  endloop
endfacet
facet normal 0.0 -0.5680306944335783 0.8230073694574715
  outer loop
    vertex 2.1000000000000005 19.761612330777883 21.86337917084601
    vertex -1.899999999999995 18.785879944227663 19.29122629884195
    vertex 2.1000000000000005 18.785879944227663 19.29122629884195
  endloop
endfacet
facet normal 0.0 -0.9149466347413492 0.40357484507273256
  outer loop
    vertex -1.899999999999995 18.785879944227663 19.29122629884195
    vertex 2.1000000000000005 19.761612330777883 21.86337917084601
    vertex -1.899999999999995 19.761612330777883 21.86337917084601
  endloop
endfacet
facet normal 0.9994645874763658 -0.03271908282177589 2.542941199204385e-19
  outer loop
    vertex 2.1000000000000005 -7.89090020155321 0.6
    vertex 2.1000000000000005 -16.499999999999996 1.4
    vertex 2.1000000000000005 -16.499999999999996 0.6
  endloop
endfacet
facet normal 1.0 0.0 0.0
  outer loop
    vertex 2.1000000000000005 -16.499999999999996 1.4
    vertex 2.1000000000000005 -7.89090020155321 0.6
    vertex 2.1000000000000005 -15.217452793592695 8.410867354859887
  endloop
endfacet
facet normal 1.0 0.0 0.0
  outer loop
    vertex 2.1000000000000005 -16.499999999999996 1.4
    vertex 2.1000000000000005 -15.217452793592695 8.410867354859887
    vertex 2.1000000000000005 -15.836067174374875 9.082158894953544
  endloop
endfacet
facet normal 1.0 0.0 0.0
  outer loop
    vertex 2.1000000000000005 -16.499999999999996 1.4
    vertex 2.1000000000000005 -15.836067174374875 9.082158894953544
    vertex 2.1000000000000005 -16.4 9.79999999999999
  endloop
endfacet
facet normal 1.0 0.0 0.0
  outer loop
    vertex 2.1000000000000005 -15.217452793592695 8.410867354859887
    vertex 2.1000000000000005 -7.89090020155321 0.6
    vertex 2.1000000000000005 -14.54798512148578 7.790279633489582
  endloop
endfacet
facet normal 1.0 0.0 0.0
  outer loop
    vertex 2.1000000000000005 -14.54798512148578 7.790279633489582
    vertex 2.1000000000000005 -7.89090020155321 0.6
    vertex 2.1000000000000005 -13.831807124909838 7.2242362065934635
  endloop
endfacet
facet normal 1.0 0.0 0.0
  outer loop
    vertex 2.1000000000000005 -13.831807124909838 7.2242362065934635
    vertex 2.1000000000000005 -7.89090020155321 0.6
    vertex 2.1000000000000005 -13.073350835202923 6.7162400053125335
  endloop
endfacet
facet normal 1.0 0.0 0.0
  outer loop
    vertex 2.1000000000000005 -13.073350835202923 6.7162400053125335
    vertex 2.1000000000000005 -7.89090020155321 0.6
    vertex 2.1000000000000005 -12.277309920783502 6.269434738465634
  endloop
endfacet
facet normal 1.0 0.0 0.0
  outer loop
    vertex 2.1000000000000005 -12.277309920783502 6.269434738465634
    vertex 2.1000000000000005 -7.89090020155321 0.6
    vertex 2.1000000000000005 -11.448610640620656 5.886585437866276
  endloop
endfacet
facet normal 1.0 0.0 0.0
  outer loop
    vertex 2.1000000000000005 -11.448610640620656 5.886585437866276
    vertex 2.1000000000000005 -7.89090020155321 0.6
    vertex 2.1000000000000005 -10.59238135832939 5.570061347063032
  endloop
endfacet
facet normal 1.0 0.0 0.0
  outer loop
    vertex 2.1000000000000005 -10.59238135832939 5.570061347063032
    vertex 2.1000000000000005 -7.89090020155321 0.6
    vertex 2.1000000000000005 -9.713920805551595 5.32182125939554
  endloop
endfacet
facet normal 1.0 0.0 0.0
  outer loop
    vertex 2.1000000000000005 -9.713920805551595 5.32182125939554
    vertex 2.1000000000000005 -7.89090020155321 0.6
    vertex 2.1000000000000005 -8.81866529102305 5.143401396100929
  endloop
endfacet
facet normal 1.0 0.0 0.0
  outer loop
    vertex 2.1000000000000005 -8.81866529102305 5.143401396100929
    vertex 2.1000000000000005 -7.89090020155321 0.6
    vertex 2.1000000000000005 -7.912155058251563 5.0359058994863295
  endloop
endfacet
facet normal 1.0 0.0 0.0
  outer loop
    vertex 2.1000000000000005 -7.912155058251563 5.0359058994863295
    vertex 2.1000000000000005 -7.89090020155321 0.6
    vertex 2.1000000000000005 -7.89090020155321 4.999999999999998
  endloop
endfacet
facet normal 1.0 0.0 0.0
  outer loop
    vertex 2.1000000000000005 -7.912155058251563 5.0359058994863295
    vertex 2.1000000000000005 -7.89090020155321 4.999999999999998
    vertex 2.1000000000000005 -6.999999999999998 4.999999999999999
  endloop
endfacet
facet normal 0.1867008696931008 0.0 -0.9824168083129685
  outer loop
    vertex 76.69295895139653 24.999999999999993 5.103471463097725
    vertex 75.78202438572038 0.0 4.999999999999999
    vertex 75.78202438572038 24.999999999999993 4.999999999999999
  endloop
endfacet
facet normal 0.11286249107102288 0.0 -0.9936106169467209
  outer loop
    vertex 75.78202438572038 0.0 4.999999999999999
    vertex 76.69295895139653 24.999999999999993 5.103471463097725
    vertex 76.69295895139653 0.0 5.103471463097725
  endloop
endfacet
facet normal 0.33084768750456445 0.0 -0.9436841673318898
  outer loop
    vertex 77.99791161381913 24.999999999999993 5.454115783508784
    vertex 76.69295895139653 0.0 5.103471463097725
    vertex 76.69295895139653 24.999999999999993 5.103471463097725
  endloop
endfacet
facet normal 0.1867008696931008 0.0 -0.9824168083129685
  outer loop
    vertex 76.69295895139653 0.0 5.103471463097725
    vertex 77.99791161381913 24.999999999999993 5.454115783508784
    vertex 77.99791161381913 0.0 5.454115783508784
  endloop
endfacet
facet normal 0.9824168083129682 0.0 -0.18670086969310243
  outer loop
    vertex 83.89652853690227 24.999999999999993 12.307041048603464
    vertex 84.0 0.0 13.217975614279643
    vertex 83.89652853690227 0.0 12.307041048603464
  endloop
endfacet
facet normal 0.9964023779371268 0.0 -0.08474845863636314
  outer loop
    vertex 84.0 0.0 13.217975614279643
    vertex 83.89652853690227 24.999999999999993 12.307041048603464
    vertex 84.0 24.999999999999993 13.217975614279643
  endloop
endfacet
facet normal 0.0 -1.0 0.0
  outer loop
    vertex 84.0 0.0 15.0
    vertex 84.0 0.0 13.217975614279643
    vertex 84.04903298936692 0.0 13.649648691430967
  endloop
endfacet
facet normal 0.0 -1.0 0.0
  outer loop
    vertex 74.0 0.0 4.999999999999999
    vertex 75.35035130856902 0.0 4.95096701063309
    vertex 75.78202438572038 0.0 4.999999999999999
  endloop
endfacet
facet normal 0.8839276373369973 0.0 -0.4676237076451896
  outer loop
    vertex 83.00491186553744 24.999999999999993 9.763863121496
    vertex 83.54588421649122 0.0 11.002088386180866
    vertex 83.00491186553744 0.0 9.763863121496
  endloop
endfacet
facet normal 0.9436841673318906 0.0 -0.3308476875045619
  outer loop
    vertex 83.54588421649122 0.0 11.002088386180866
    vertex 83.00491186553744 24.999999999999993 9.763863121496
    vertex 83.54588421649122 24.999999999999993 11.002088386180866
  endloop
endfacet
facet normal 0.9436841673318906 0.0 -0.3308476875045619
  outer loop
    vertex 83.54588421649122 24.999999999999993 11.002088386180866
    vertex 83.89652853690227 0.0 12.307041048603464
    vertex 83.54588421649122 0.0 11.002088386180866
  endloop
endfacet
facet normal 0.9824168083129682 0.0 -0.18670086969310243
  outer loop
    vertex 83.89652853690227 0.0 12.307041048603464
    vertex 83.54588421649122 24.999999999999993 11.002088386180866
    vertex 83.89652853690227 24.999999999999993 12.307041048603464
  endloop
endfacet
facet normal -0.7460234002055964 0.0 -0.6659197296564208
  outer loop
    vertex 81.46508908438217 24.999999999999993 22.398167715819717
    vertex 82.4150254049874 0.0 21.333963289495927
    vertex 81.46508908438217 0.0 22.398167715819717
  endloop
endfacet
facet normal -0.7947661616166078 0.0 -0.6069157670955698
  outer loop
    vertex 82.4150254049874 0.0 21.333963289495927
    vertex 81.46508908438217 24.999999999999993 22.398167715819717
    vertex 82.4150254049874 24.999999999999993 21.333963289495927
  endloop
endfacet
facet normal -0.8780278396456055 0.0 -0.47860956196807314
  outer loop
    vertex 83.1915520185763 24.999999999999993 20.137336157679062
    vertex 83.77650209333096 0.0 18.836281399316963
    vertex 83.1915520185763 0.0 20.137336157679062
  endloop
endfacet
facet normal -0.9407480657588613 0.0 -0.33910629125830355
  outer loop
    vertex 83.77650209333096 0.0 18.836281399316963
    vertex 83.1915520185763 24.999999999999993 20.137336157679062
    vertex 83.77650209333096 24.999999999999993 18.836281399316963
  endloop
endfacet
facet normal -0.7947661616166078 0.0 -0.6069157670955698
  outer loop
    vertex 82.4150254049874 24.999999999999993 21.333963289495927
    vertex 83.1915520185763 0.0 20.137336157679062
    vertex 82.4150254049874 0.0 21.333963289495927
  endloop
endfacet
facet normal -0.8780278396456055 0.0 -0.47860956196807314
  outer loop
    vertex 83.1915520185763 0.0 20.137336157679062
    vertex 82.4150254049874 24.999999999999993 21.333963289495927
    vertex 83.1915520185763 24.999999999999993 20.137336157679062
  endloop
endfacet
facet normal -0.9407480657588613 0.0 -0.33910629125830355
  outer loop
    vertex 83.77650209333096 24.999999999999993 18.836281399316963
    vertex 84.0 0.0 18.026882652847068
    vertex 83.77650209333096 0.0 18.836281399316963
  endloop
endfacet
facet normal -0.9909406640468005 0.0 -0.1343004107904592
  outer loop
    vertex 84.0 0.0 18.026882652847068
    vertex 83.77650209333096 24.999999999999993 18.836281399316963
    vertex 84.0 24.999999999999993 18.026882652847068
  endloop
endfacet
facet normal 0.9659258262890684 -0.2588190451025204 -3.2753235510317146e-33
  outer loop
    vertex 2.368875904203349 -5.84858494638792 0.6
    vertex 2.167507745109715 -6.860931045056031 4.999999999999998
    vertex 2.167507745109715 -6.860931045056031 0.6
  endloop
endfacet
facet normal 0.9914448613738105 -0.1305261922200509 2.547033069956056e-19
  outer loop
    vertex 2.167507745109715 -6.860931045056031 4.999999999999998
    vertex 2.368875904203349 -5.84858494638792 0.6
    vertex 2.368875904203349 -5.84858494638792 4.999999999999998
  endloop
endfacet
facet normal 1.0 0.0 0.0
  outer loop
    vertex 2.1000000000000005 24.999999999999993 4.999999999999999
    vertex 2.1000000000000005 5.472050621353494 5.97600188950472
    vertex 2.1000000000000005 2.8999999999999977 4.999999999999994
  endloop
endfacet
facet normal 1.0 0.0 0.0
  outer loop
    vertex 2.1000000000000005 5.472050621353494 5.97600188950472
    vertex 2.1000000000000005 24.999999999999993 4.999999999999999
    vertex 2.1000000000000005 7.926783931203857 7.217899012712903
  endloop
endfacet
facet normal 1.0 0.0 0.0
  outer loop
    vertex 2.1000000000000005 7.926783931203857 7.217899012712903
    vertex 2.1000000000000005 24.999999999999993 4.999999999999999
    vertex 2.1000000000000005 10.236803653323975 8.711831062887136
  endloop
endfacet
facet normal 1.0 0.0 0.0
  outer loop
    vertex 2.1000000000000005 10.236803653323975 8.711831062887136
    vertex 2.1000000000000005 24.999999999999993 4.999999999999999
    vertex 2.1000000000000005 12.376328600754215 10.441124874373582
  endloop
endfacet
facet normal 1.0 0.0 0.0
  outer loop
    vertex 2.1000000000000005 12.376328600754215 10.441124874373582
    vertex 2.1000000000000005 24.999999999999993 4.999999999999999
    vertex 2.1000000000000005 14.32148040910388 12.38648050499636
  endloop
endfacet
facet normal 1.0 0.0 0.0
  outer loop
    vertex 2.1000000000000005 14.32148040910388 12.38648050499636
    vertex 2.1000000000000005 24.999999999999993 4.999999999999999
    vertex 2.1000000000000005 16.050550033226845 14.526186634832163
  endloop
endfacet
facet normal 1.0 0.0 0.0
  outer loop
    vertex 2.1000000000000005 16.050550033226845 14.526186634832163
    vertex 2.1000000000000005 24.999999999999993 4.999999999999999
    vertex 2.1000000000000005 17.544240033010862 16.83636287738746
  endloop
endfacet
facet normal 1.0 0.0 0.0
  outer loop
    vertex 2.1000000000000005 17.544240033010862 16.83636287738746
    vertex 2.1000000000000005 24.999999999999993 4.999999999999999
    vertex 2.1000000000000005 18.785879944227663 19.29122629884195
  endloop
endfacet
facet normal 1.0 0.0 0.0
  outer loop
    vertex 2.1000000000000005 18.785879944227663 19.29122629884195
    vertex 2.1000000000000005 24.999999999999993 4.999999999999999
    vertex 2.1000000000000005 19.761612330777883 21.86337917084601
  endloop
endfacet
facet normal 1.0 0.0 0.0
  outer loop
    vertex 2.1000000000000005 19.761612330777883 21.86337917084601
    vertex 2.1000000000000005 24.999999999999993 4.999999999999999
    vertex 2.1000000000000005 24.999999999999993 21.86337917084601
  endloop
endfacet
facet normal 0.0 -1.0 0.0
  outer loop
    vertex 88.70000000000002 24.999999999999993 0.6
    vertex 75.78202438572038 24.999999999999993 4.999999999999999
    vertex -1.899999999999995 24.999999999999993 0.6
  endloop
endfacet
facet normal 0.0 -1.0 0.0
  outer loop
    vertex 75.78202438572038 24.999999999999993 4.999999999999999
    vertex 88.70000000000002 24.999999999999993 0.6
    vertex 76.69295895139653 24.999999999999993 5.103471463097725
  endloop
endfacet
facet normal 0.0 -1.0 0.0
  outer loop
    vertex 76.69295895139653 24.999999999999993 5.103471463097725
    vertex 88.70000000000002 24.999999999999993 0.6
    vertex 77.99791161381913 24.999999999999993 5.454115783508784
  endloop
endfacet
facet normal 0.0 -1.0 0.0
  outer loop
    vertex 77.99791161381913 24.999999999999993 5.454115783508784
    vertex 88.70000000000002 24.999999999999993 0.6
    vertex 79.236136878504 24.999999999999993 5.99508813446256
  endloop
endfacet
facet normal 0.0 -1.0 0.0
  outer loop
    vertex 79.236136878504 24.999999999999993 5.99508813446256
    vertex 88.70000000000002 24.999999999999993 0.6
    vertex 80.38004891595435 24.999999999999993 6.7143364512326205
  endloop
endfacet
facet normal 0.0 -1.0 0.0
  outer loop
    vertex 80.38004891595435 24.999999999999993 6.7143364512326205
    vertex 88.70000000000002 24.999999999999993 0.6
    vertex 81.40416305603426 24.999999999999993 7.595836943965733
  endloop
endfacet
facet normal 0.0 -1.0 0.0
  outer loop
    vertex 81.40416305603426 24.999999999999993 7.595836943965733
    vertex 88.70000000000002 24.999999999999993 0.6
    vertex 82.28566354876739 24.999999999999993 8.619951084045656
  endloop
endfacet
facet normal 0.0 -1.0 0.0
  outer loop
    vertex 82.28566354876739 24.999999999999993 8.619951084045656
    vertex 88.70000000000002 24.999999999999993 0.6
    vertex 83.00491186553744 24.999999999999993 9.763863121496
  endloop
endfacet
facet normal 0.0 -1.0 0.0
  outer loop
    vertex 83.00491186553744 24.999999999999993 9.763863121496
    vertex 88.70000000000002 24.999999999999993 0.6
    vertex 83.54588421649122 24.999999999999993 11.002088386180866
  endloop
endfacet
facet normal 0.0 -1.0 0.0
  outer loop
    vertex 83.54588421649122 24.999999999999993 11.002088386180866
    vertex 88.70000000000002 24.999999999999993 0.6
    vertex 88.70000000000002 24.999999999999993 23.591326925363752
  endloop
endfacet
facet normal 0.0 -1.0 0.0
  outer loop
    vertex 83.54588421649122 24.999999999999993 11.002088386180866
    vertex 88.70000000000002 24.999999999999993 23.591326925363752
    vertex 83.89652853690227 24.999999999999993 12.307041048603464
  endloop
endfacet
facet normal 0.0 -1.0 0.0
  outer loop
    vertex 83.89652853690227 24.999999999999993 12.307041048603464
    vertex 88.70000000000002 24.999999999999993 23.591326925363752
    vertex 84.0 24.999999999999993 13.217975614279643
  endloop
endfacet
facet normal 0.0 -1.0 0.0
  outer loop
    vertex 84.0 24.999999999999993 13.217975614279643
    vertex 88.70000000000002 24.999999999999993 23.591326925363752
    vertex 84.0 24.999999999999993 18.026882652847068
  endloop
endfacet
facet normal 0.0 -1.0 0.0
  outer loop
    vertex 84.0 24.999999999999993 18.026882652847068
    vertex 88.70000000000002 24.999999999999993 23.591326925363752
    vertex 83.77650209333096 24.999999999999993 18.836281399316963
  endloop
endfacet
facet normal 0.0 -1.0 0.0
  outer loop
    vertex 83.77650209333096 24.999999999999993 18.836281399316963
    vertex 88.70000000000002 24.999999999999993 23.591326925363752
    vertex 83.1915520185763 24.999999999999993 20.137336157679062
  endloop
endfacet
facet normal 0.0 -1.0 0.0
  outer loop
    vertex 83.1915520185763 24.999999999999993 20.137336157679062
    vertex 88.70000000000002 24.999999999999993 23.591326925363752
    vertex 82.4150254049874 24.999999999999993 21.333963289495927
  endloop
endfacet
facet normal 0.0 -1.0 0.0
  outer loop
    vertex 82.4150254049874 24.999999999999993 21.333963289495927
    vertex 88.70000000000002 24.999999999999993 23.591326925363752
    vertex 81.46508908438217 24.999999999999993 22.398167715819717
  endloop
endfacet
facet normal 0.0 -1.0 0.0
  outer loop
    vertex 81.46508908438217 24.999999999999993 22.398167715819717
    vertex 88.70000000000002 24.999999999999993 23.591326925363752
    vertex 81.1650861526108 24.999999999999993 23.591326925363752
  endloop
endfacet
facet normal 0.0 -1.0 0.0
  outer loop
    vertex -1.899999999999995 24.999999999999993 0.6
    vertex 2.1000000000000005 24.999999999999993 4.999999999999999
    vertex -1.899999999999995 24.999999999999993 21.86337917084601
  endloop
endfacet
facet normal 0.0 -1.0 0.0
  outer loop
    vertex 2.1000000000000005 24.999999999999993 4.999999999999999
    vertex -1.899999999999995 24.999999999999993 0.6
    vertex 75.78202438572038 24.999999999999993 4.999999999999999
  endloop
endfacet
facet normal 0.0 -1.0 0.0
  outer loop
    vertex -1.899999999999995 24.999999999999993 21.86337917084601
    vertex 2.1000000000000005 24.999999999999993 4.999999999999999
    vertex 2.1000000000000005 24.999999999999993 21.86337917084601
  endloop
endfacet
facet normal 0.0 -0.5680306944335783 0.8230073694574715
  outer loop
    vertex 2.1000000000000005 19.761612330777883 21.86337917084601
    vertex -1.899999999999995 24.999999999999993 21.86337917084601
    vertex -1.899999999999995 19.761612330777883 21.86337917084601
  endloop
endfacet
facet normal 0.0 0.0 1.0
  outer loop
    vertex -1.899999999999995 24.999999999999993 21.86337917084601
    vertex 2.1000000000000005 19.761612330777883 21.86337917084601
    vertex 2.1000000000000005 24.999999999999993 21.86337917084601
  endloop
endfacet
facet normal -3.803804409796388e-18 -1.0 5.607233059979206e-17
  outer loop
    vertex 75.35035130856902 0.0 4.95096701063309
    vertex 9.990900201553211 0.0 4.999999999999998
    vertex 9.990900201553211 0.0 0.6
  endloop
endfacet
facet normal 0.032719082821775936 -0.9994645874763658 2.805118425524907e-17
  outer loop
    vertex 9.990900201553211 0.0 4.999999999999998
    vertex 75.35035130856902 0.0 4.95096701063309
    vertex 74.0 0.0 4.999999999999999
  endloop
endfacet
facet normal -3.803804409796388e-18 -1.0 5.607233059979206e-17
  outer loop
    vertex 88.70000000000002 0.0 0.6
    vertex 75.35035130856902 0.0 4.95096701063309
    vertex 9.990900201553211 0.0 0.6
  endloop
endfacet
facet normal -3.803804409796388e-18 -1.0 5.607233059979206e-17
  outer loop
    vertex 75.35035130856902 0.0 4.95096701063309
    vertex 88.70000000000002 0.0 0.6
    vertex 75.78202438572038 0.0 4.999999999999999
  endloop
endfacet
facet normal -3.803804409796388e-18 -1.0 5.607233059979206e-17
  outer loop
    vertex 75.78202438572038 0.0 4.999999999999999
    vertex 88.70000000000002 0.0 0.6
    vertex 76.69295895139653 0.0 5.103471463097725
  endloop
endfacet
facet normal -3.803804409796388e-18 -1.0 5.607233059979206e-17
  outer loop
    vertex 76.69295895139653 0.0 5.103471463097725
    vertex 88.70000000000002 0.0 0.6
    vertex 77.99791161381913 0.0 5.454115783508784
  endloop
endfacet
facet normal -3.803804409796388e-18 -1.0 5.607233059979206e-17
  outer loop
    vertex 77.99791161381913 0.0 5.454115783508784
    vertex 88.70000000000002 0.0 0.6
    vertex 79.236136878504 0.0 5.99508813446256
  endloop
endfacet
facet normal -3.803804409796388e-18 -1.0 5.607233059979206e-17
  outer loop
    vertex 79.236136878504 0.0 5.99508813446256
    vertex 88.70000000000002 0.0 0.6
    vertex 80.38004891595435 0.0 6.7143364512326205
  endloop
endfacet
facet normal -3.803804409796388e-18 -1.0 5.607233059979206e-17
  outer loop
    vertex 80.38004891595435 0.0 6.7143364512326205
    vertex 88.70000000000002 0.0 0.6
    vertex 81.40416305603426 0.0 7.595836943965733
  endloop
endfacet
facet normal -3.803804409796388e-18 -1.0 5.607233059979206e-17
  outer loop
    vertex 81.40416305603426 0.0 7.595836943965733
    vertex 88.70000000000002 0.0 0.6
    vertex 82.28566354876739 0.0 8.619951084045656
  endloop
endfacet
facet normal -3.803804409796388e-18 -1.0 5.607233059979206e-17
  outer loop
    vertex 82.28566354876739 0.0 8.619951084045656
    vertex 88.70000000000002 0.0 0.6
    vertex 83.00491186553744 0.0 9.763863121496
  endloop
endfacet
facet normal -3.803804409796388e-18 -1.0 5.607233059979206e-17
  outer loop
    vertex 83.00491186553744 0.0 9.763863121496
    vertex 88.70000000000002 0.0 0.6
    vertex 83.54588421649122 0.0 11.002088386180866
  endloop
endfacet
facet normal -3.803804409796388e-18 -1.0 5.607233059979206e-17
  outer loop
    vertex 83.54588421649122 0.0 11.002088386180866
    vertex 88.70000000000002 0.0 0.6
    vertex 88.70000000000002 2.8199664825478975e-15 23.591326925363752
  endloop
endfacet
facet normal -3.803804409796388e-18 -1.0 5.607233059979206e-17
  outer loop
    vertex 83.54588421649122 0.0 11.002088386180866
    vertex 88.70000000000002 2.8199664825478975e-15 23.591326925363752
    vertex 83.89652853690227 0.0 12.307041048603464
  endloop
endfacet
facet normal -3.803804409796388e-18 -1.0 5.607233059979206e-17
  outer loop
    vertex 83.89652853690227 0.0 12.307041048603464
    vertex 88.70000000000002 2.8199664825478975e-15 23.591326925363752
    vertex 84.0 0.0 13.217975614279643
  endloop
endfacet
facet normal -3.803804409796388e-18 -1.0 5.607233059979206e-17
  outer loop
    vertex 84.0 0.0 13.217975614279643
    vertex 88.70000000000002 2.8199664825478975e-15 23.591326925363752
    vertex 84.04903298936692 0.0 13.649648691430967
  endloop
endfacet
facet normal -3.803804409796388e-18 -1.0 5.607233059979206e-17
  outer loop
    vertex 84.04903298936692 0.0 13.649648691430967
    vertex 88.70000000000002 2.8199664825478975e-15 23.591326925363752
    vertex 84.0 0.0 15.0
  endloop
endfacet
facet normal -3.803804409796388e-18 -1.0 5.607233059979206e-17
  outer loop
    vertex 84.0 0.0 15.0
    vertex 88.70000000000002 2.8199664825478975e-15 23.591326925363752
    vertex 84.0 0.0 18.026882652847068
  endloop
endfacet
facet normal -3.803804409796388e-18 -1.0 5.607233059979206e-17
  outer loop
    vertex 84.0 0.0 18.026882652847068
    vertex 88.70000000000002 2.8199664825478975e-15 23.591326925363752
    vertex 83.77650209333096 0.0 18.836281399316963
  endloop
endfacet
facet normal -3.803804409796388e-18 -1.0 5.607233059979206e-17
  outer loop
    vertex 83.77650209333096 0.0 18.836281399316963
    vertex 88.70000000000002 2.8199664825478975e-15 23.591326925363752
    vertex 83.1915520185763 0.0 20.137336157679062
  endloop
endfacet
facet normal -3.803804409796388e-18 -1.0 5.607233059979206e-17
  outer loop
    vertex 83.1915520185763 0.0 20.137336157679062
    vertex 88.70000000000002 2.8199664825478975e-15 23.591326925363752
    vertex 82.4150254049874 0.0 21.333963289495927
  endloop
endfacet
facet normal -3.803804409796388e-18 -1.0 5.607233059979206e-17
  outer loop
    vertex 82.4150254049874 0.0 21.333963289495927
    vertex 88.70000000000002 2.8199664825478975e-15 23.591326925363752
    vertex 81.46508908438217 0.0 22.398167715819717
  endloop
endfacet
facet normal -3.803804409796388e-18 -1.0 5.607233059979206e-17
  outer loop
    vertex 81.46508908438217 0.0 22.398167715819717
    vertex 88.70000000000002 2.8199664825478975e-15 23.591326925363752
    vertex 81.1650861526108 2.8199664825478975e-15 23.591326925363752
  endloop
endfacet
endsolid extruder brace 3mm shorter
